<svg id="Layer_1" data-name="Layer 1" xmlns="http://www.w3.org/2000/svg" viewBox="0 0 286.7 286.58"><defs><style>.cls-1{fill:#fff}</style></defs><title>Artboard 1</title><path class="cls-1" d="M227.47 0H58.74A58.72 58.72 0 0 0 0 58.74v168.73a58.72 58.72 0 0 0 58.74 58.74h96.32v-113.9H116v-44.09h39.05V97.14c.17-29.78 10.91-40 10.91-40 15.78-20.66 40.67-20 40.67-20h39.71v41.61H220c-18.06-.32-19.69 15-19.85 18.39v31.08h44.25l-5.4 44.09h-38.86v113.9h27.33a58.72 58.72 0 0 0 58.74-58.74V58.74A58.72 58.72 0 0 0 227.47 0z"/></svg>