<svg id="Layer_1" data-name="Layer 1" xmlns="http://www.w3.org/2000/svg" viewBox="0 0 286.57 286.27"><defs><style>.cls-1{fill:#fff}</style></defs><title>Artboard 1</title><path class="cls-1" d="M176.58 55.9h-67a53.75 53.75 0 0 0-53.74 53.74v66.94a53.73 53.73 0 0 0 53.74 53.74h67a53.73 53.73 0 0 0 53.73-53.74v-66.94a53.74 53.74 0 0 0-53.73-53.74zM146 200.34a56.86 56.86 0 1 1 56.85-56.85A56.86 56.86 0 0 1 146 200.34zm52.91-100.14a14.46 14.46 0 1 1 14.47-14.46 14.45 14.45 0 0 1-14.47 14.46z"/><path class="cls-1" d="M146 109.28a34.21 34.21 0 1 0 34.2 34.21 34.2 34.2 0 0 0-34.2-34.21z"/><path class="cls-1" d="M227.42 0H58.79A58.8 58.8 0 0 0 0 58.8v168.63a58.79 58.79 0 0 0 58.79 58.79h168.63a58.8 58.8 0 0 0 58.79-58.79V58.8A58.8 58.8 0 0 0 227.42 0zM251 184.53a66.5 66.5 0 0 1-66.5 66.5h-82.82a66.5 66.5 0 0 1-66.5-66.5V101.7a66.51 66.51 0 0 1 66.5-66.52h82.85A66.51 66.51 0 0 1 251 101.7z"/></svg>