<svg id="Layer_2" data-name="Layer 2" xmlns="http://www.w3.org/2000/svg" viewBox="0 0 286.57 286.27"><defs><style>.cls-1{fill:#fff}</style></defs><title>Artboard 1</title><path class="cls-1" d="M227.46 0H58.93A58.77 58.77 0 0 0 .17 58.76v168.53a58.76 58.76 0 0 0 58.76 58.76h168.53a58.75 58.75 0 0 0 58.75-58.76V58.76A58.76 58.76 0 0 0 227.46 0zM86 246.41H43V108.29h43zm-21.5-157a24.89 24.89 0 1 1 24.88-24.87A24.86 24.86 0 0 1 64.5 89.41zm182.27 157h-42.91v-67.17c0-16-.28-36.63-22.32-36.63-22.33 0-25.74 17.47-25.74 35.49v68.31h-42.91V108.29h41.18v18.9h.59c5.72-10.87 19.73-22.31 40.61-22.31 43.47 0 51.5 28.6 51.5 65.78z"/></svg>