<svg id="Layer_1" data-name="Layer 1" xmlns="http://www.w3.org/2000/svg" viewBox="0 0 286.57 286.27"><defs><style>.cls-1{fill:#fff;}</style></defs><title>Artboard 1</title><path class="cls-1" d="M286.05,227.31V58.74A58.72,58.72,0,0,0,227.31,0H58.74A58.72,58.72,0,0,0,0,58.74V227.31a58.72,58.72,0,0,0,58.74,58.74H227.47a58.82,58.82,0,0,0,58.74-58.74ZM225.19,104.46a51.73,51.73,0,0,1,.17,5.21c0,54-41.17,116.34-116.34,116.34a114.94,114.94,0,0,1-62.48-18.39,65.24,65.24,0,0,0,9.76.65,82.34,82.34,0,0,0,50.76-17.57,41,41,0,0,1-38.23-28.48,39.12,39.12,0,0,0,7.64.82,38.7,38.7,0,0,0,10.74-1.47,40.84,40.84,0,0,1-32.86-40v-.49a42,42,0,0,0,18.54,5,40.66,40.66,0,0,1-18.22-34,39.88,39.88,0,0,1,5.53-20.5,116.45,116.45,0,0,0,84.29,42.8,42.73,42.73,0,0,1-1-9.28,40.86,40.86,0,0,1,70.62-28,79.93,79.93,0,0,0,26-9.93A41,41,0,0,1,222.1,89.82a87.93,87.93,0,0,0,23.43-6.51A81,81,0,0,1,225.19,104.46Z"/></svg>