<svg id="Layer_1" xmlns="http://www.w3.org/2000/svg" viewBox="0 0 200.1 48.2"><style>.st0{fill:#555}</style><path class="st0" d="M16.5 15.3H16l-5.5 21.8h4.7l-1.1 4.6H.3l1.1-4.6h4.4l6.4-25.4H7.7l1.2-4.6H22l8.8 24.3h.5l4.9-19.7h-4.7l1.2-4.6h13.9l-1.1 4.6H41l-7.6 30.5h-7.1l-9.8-26.9zm31 16.4v.4c0 4.6 2.5 6 5.1 6 2.3 0 4.7-1.3 7-4.2l2.3 1.9c-2.8 3.6-6.2 6.4-11.9 6.4-6.2 0-10.3-3.8-10.3-9.8 0-8.1 6.9-15.9 15.9-15.9 5.2 0 8.1 2.5 8.1 6.1 0 4.8-4.8 8.8-16.2 9.1zm.4-2.8c6.8-.5 8.9-3.6 8.9-6.4 0-1.6-.8-2.7-2.2-2.7-3.3.1-5.8 4.8-6.7 9.1z"/><path class="st0" d="M77.3 21.3c0 5.2-4.4 10.7-4.4 13.9 0 1.2.5 2 1.8 2 2.8 0 5.9-4.4 9.6-20.2h6.9l-1.9 8c-.8 3.4-1.3 6.1-1.3 8.3 0 3 1.3 3.7 2.9 3.7 4.8 0 8.1-8.4 8-12.9-.4.3-1.1.5-1.9.5-1.9 0-3.6-1.4-3.6-3.7 0-2.4 1.8-4.6 4.4-4.6 2.7 0 5 1.9 5 6.5 0 7.4-5.1 19.4-14.2 19.4-3.8 0-6.8-2-6.8-7.5V34c-1.9 4.5-4.8 8.3-9.5 8.3-3.8 0-6.8-2.5-6.8-6.7 0-5 4.7-10.1 4.7-13.2 0-.7-.4-.9-.8-.9-1.3 0-2.2 1.6-3.9 5l-2.7-1c2.5-5.6 5.5-8.9 9.6-8.9 3.2 0 4.9 1.9 4.9 4.7zm35.3 20.9c-6 0-10.8-2.5-10.8-6.2 0-2.4 1.7-4 3.9-4 2.5 0 3.6 1.7 3.6 3.4 0 1-.4 2.2-1.2 2.9.7.5 2.1 1.1 4 1.1 2.7 0 4.1-1.4 4.1-3.4s-2.3-3-4.7-4.1c-3.4-1.6-6.6-3.3-6.6-6.9 0-5.5 5.6-8.3 10.8-8.3 5.9 0 9.8 2.7 9.8 5.9 0 2.3-1.6 3.8-3.7 3.8-2.5 0-3.7-1.7-3.7-3.2 0-1.2.4-2.2 1.1-2.8-.4-.4-1.6-.8-3-.8-2.5 0-4.1 1.4-4.1 3.2 0 2.1 2.5 3 5.7 4.6 2.7 1.4 5.8 2.9 5.8 6.6-.2 5.6-5.4 8.2-11 8.2z"/></svg>