<svg id="Layer_1" data-name="Layer 1" xmlns="http://www.w3.org/2000/svg" viewBox="0 0 512 512"><defs><style>.cls-1{fill:#cb6015}</style></defs><title>2019-portal-icon_membership-card</title><path class="cls-1" d="M469.33 56.89H42.67A42.68 42.68 0 0 0 0 99.56v312.88a42.68 42.68 0 0 0 42.67 42.67h426.66A42.68 42.68 0 0 0 512 412.44V99.56a42.68 42.68 0 0 0-42.67-42.67zm0 355.55H269.51c.8-4 .71 3.2.71-19.91 0-28.26-26.75-51.2-59.73-51.2-9.6 0-16.62 7.11-39.82 7.11-23.91 0-29.69-7.11-39.83-7.11-33 0-59.73 22.94-59.73 51.2 0 23.11-.18 15.91.71 19.91H42.67v-256h426.66zM320 341.33h99.56a7.13 7.13 0 0 0 7.11-7.11V320a7.13 7.13 0 0 0-7.11-7.11H320a7.13 7.13 0 0 0-7.11 7.11v14.22a7.13 7.13 0 0 0 7.11 7.11zm0-56.89h99.56a7.13 7.13 0 0 0 7.11-7.11v-14.22a7.13 7.13 0 0 0-7.11-7.11H320a7.13 7.13 0 0 0-7.11 7.11v14.22a7.13 7.13 0 0 0 7.11 7.11zm0-56.88h99.56a7.13 7.13 0 0 0 7.11-7.12v-14.22a7.13 7.13 0 0 0-7.11-7.11H320a7.13 7.13 0 0 0-7.11 7.11v14.22a7.13 7.13 0 0 0 7.11 7.12zm-149.33 85.33A56.89 56.89 0 1 0 113.78 256a56.95 56.95 0 0 0 56.89 56.89z"/></svg>