<svg id="Layer_1" xmlns="http://www.w3.org/2000/svg" viewBox="0 0 15 20"><style>.st0{fill:#37354c}</style><path class="st0" d="M6.7 19.6c-.7-1-1.5-2.2-2.6-3.7-1.3-1.9-2.2-3.1-2.6-3.8-.6-.9-1-1.7-1.2-2.4C.1 9.1 0 8.3 0 7.5c0-1.4.3-2.6 1-3.8.7-1.1 1.6-2 2.8-2.7C4.9.3 6.2 0 7.5 0c1.4 0 2.6.3 3.8 1 1.1.7 2.1 1.6 2.7 2.7.7 1.1 1 2.4 1 3.8 0 .8-.1 1.6-.3 2.2-.2.6-.6 1.4-1.2 2.4-.4.7-1.3 1.9-2.6 3.8l-2.6 3.7c-.2.3-.5.4-.8.4-.3 0-.6-.1-.8-.4zm.8-9c.9 0 1.6-.3 2.2-.9.6-.6.9-1.3.9-2.2s-.3-1.6-.9-2.2c-.6-.6-1.3-.9-2.2-.9s-1.6.3-2.2.9c-.6.6-.9 1.3-.9 2.2s.3 1.6.9 2.2c.6.6 1.3.9 2.2.9z"/></svg>