<svg id="Layer_1" data-name="Layer 1" xmlns="http://www.w3.org/2000/svg" viewBox="0 0 512 512"><defs><style>.cls-1{fill:#cb6015}</style></defs><title>2019-portal-icon_pay-payoff</title><path class="cls-1" d="M448 131.9V464a48 48 0 0 1-48 48H112a48 48 0 0 1-48-48V48a48 48 0 0 1 48-48h204.1A48 48 0 0 1 350 14.1L433.9 98a47.83 47.83 0 0 1 14.1 33.9zm-128-80V128h76.1zM400 464V176H296a23.94 23.94 0 0 1-24-24V48H112v416z"/><path class="cls-1" d="M344.06 247.21L238 352.47a8.94 8.94 0 0 1-12.65-.05l-56-56.44a9 9 0 0 1 .05-12.66l16.94-16.8a8.94 8.94 0 0 1 12.65.05l32.89 33.15 82.82-82.15a8.94 8.94 0 0 1 12.65.05l16.81 16.94a8.94 8.94 0 0 1-.06 12.65z"/></svg>