<svg id="Layer_1" xmlns="http://www.w3.org/2000/svg" viewBox="0 0 18 20.6"><style>.st0{fill:#cb6015}</style><path class="st0" d="M10.6 5.5c0 .3.1.5.3.7s.4.3.7.3H17v13.1c0 .3-.1.5-.3.7-.2.2-.4.3-.7.3H2.6c-.3 0-.5-.1-.7-.3s-.3-.4-.3-.7V1c0-.3.1-.5.3-.7s.4-.3.7-.3h8v5.5zm3 8.4c.2-.2.3-.4.2-.7-.1-.3-.3-.4-.6-.4h-2.6V9.6c0-.2-.1-.3-.2-.5-.1-.1-.3-.1-.5-.1H8.6c-.1 0-.3 0-.4.2-.1.1-.2.2-.2.4v3.2H5.4c-.3 0-.5.1-.6.4-.1.3-.1.5.2.7l3.8 3.8c.1.1.3.2.5.2s.3-.1.5-.2l3.8-3.8zm3.1-9.7c.2.2.3.4.3.7v.2h-5.1V0h.2c.3 0 .5.1.7.3l3.9 3.9z"/></svg>