<svg id="Layer_1" data-name="Layer 1" xmlns="http://www.w3.org/2000/svg" viewBox="0 0 18 20.6"><defs><style>.st0{fill:#37354c}</style></defs><path class="st0" d="M18 4.5v14.1c0 .5-.2 1-.6 1.4-.4.4-.8.6-1.4.6H1.9c-.5 0-1-.2-1.4-.6-.3-.4-.5-.8-.5-1.4V4.5c0-.5.2-1 .6-1.4.4-.4.8-.6 1.4-.6h1.9v-2c0-.1 0-.2.1-.3.1-.2.2-.2.3-.2h1.6c.1 0 .2 0 .3.1.1.1.1.2.1.3v2.1h5.1v-2c0-.1 0-.2.1-.3.3-.2.4-.2.6-.2h1.6c.1 0 .2 0 .3.1.1.1.1.2.1.3v2.1H16c.5 0 1 .2 1.4.6.4.4.6.9.6 1.4zm-1.9 13.9v-12H1.9v12c0 .1 0 .1.1.2s.1.1.2.1h13.7c.1 0 .1 0 .2-.1-.1-.1 0-.1 0-.2zm-2.6-6.7v1c0 .1 0 .2-.1.3-.1.1-.2.1-.3.1H10v3.1c0 .1 0 .2-.1.3-.1.1-.2.1-.3.1h-1c-.1 0-.2 0-.3-.1-.2 0-.3-.1-.3-.3v-3.1H5c-.1 0-.2 0-.3-.1-.1-.1-.1-.2-.1-.3v-1c0-.1 0-.2.1-.3.1-.1.2-.1.3-.1h3V8.2c0-.1 0-.2.1-.3.1-.1.2-.1.3-.1h1c.1 0 .2 0 .3.1.2 0 .3.2.3.3v3.1h3c.1 0 .2 0 .3.1.2.1.2.2.2.3z"/></svg>