<svg id="Layer_1" data-name="Layer 1" xmlns="http://www.w3.org/2000/svg" viewBox="0 0 512 512"><defs><style>.cls-1{fill:#cb6015}</style></defs><title>2019-portal-icon_giving</title><path class="cls-1" d="M256 166.4c-42.42 0-76.8 40.11-76.8 89.6s34.38 89.6 76.8 89.6 76.8-40.1 76.8-89.6-34.38-89.6-76.8-89.6zm32 134.4a6.39 6.39 0 0 1-6.4 6.4h-51.2a6.39 6.39 0 0 1-6.4-6.4V288a6.39 6.39 0 0 1 6.4-6.4h12.8v-44.35l-.38.25a6.39 6.39 0 0 1-8.86-1.77l-7.1-10.65a6.39 6.39 0 0 1 1.77-8.87l12.26-8.21a19.21 19.21 0 0 1 10.65-3.22h10.86a6.39 6.39 0 0 1 6.4 6.4v70.4h12.8A6.39 6.39 0 0 1 288 288zm198.4-198.4H25.6A25.6 25.6 0 0 0 0 128v256a25.6 25.6 0 0 0 25.6 25.6h460.8A25.6 25.6 0 0 0 512 384V128a25.6 25.6 0 0 0-25.6-25.6zM473.6 320a51.2 51.2 0 0 0-51.2 51.2H89.6A51.2 51.2 0 0 0 38.4 320V192a51.2 51.2 0 0 0 51.2-51.2h332.8a51.2 51.2 0 0 0 51.2 51.2z"/></svg>