<svg id="Layer_1" data-name="Layer 1" xmlns="http://www.w3.org/2000/svg" viewBox="0 0 512 512"><defs><style>.cls-1{fill:#cb6015}</style></defs><title>2019-portal-icon_joint-update</title><circle class="cls-1" cx="202.22" cy="154.43" r="101.57" transform="rotate(-9.22 202.183 154.42)"/><path class="cls-1" d="M351.54 334.39v-10.88h-10.88A36.92 36.92 0 0 1 304 290.05a104.38 104.38 0 0 0-32.09-5h-7.52a140.23 140.23 0 0 1-124.24 0h-7.53A104.49 104.49 0 0 0 28.1 389.49v26.12a43.54 43.54 0 0 0 43.53 43.52H332.8a43.53 43.53 0 0 0 43.53-43.52v-26.12a104.43 104.43 0 0 0-2.13-21.07 37 37 0 0 1-22.66-34.03zm126.89-99.68h-38.09v-38.08a9.71 9.71 0 0 0-9.67-9.68h-32.25a9.71 9.71 0 0 0-9.67 9.68v38.08h-38.09a9.71 9.71 0 0 0-9.67 9.68v32.24a9.7 9.7 0 0 0 9.67 9.67h38.09v38.09a9.71 9.71 0 0 0 9.67 9.68h32.25a9.71 9.71 0 0 0 9.67-9.68V286.3h38.09a9.7 9.7 0 0 0 9.67-9.67v-32.24a9.71 9.71 0 0 0-9.67-9.68z"/></svg>