<svg id="Layer_1" data-name="Layer 1" xmlns="http://www.w3.org/2000/svg" viewBox="0 0 512 512"><defs><style>.cls-1{fill:#cb6015}</style></defs><title>2019-portal-icon_pay-invoice</title><path class="cls-1" d="M448 131.9V464a48 48 0 0 1-48 48H112a48 48 0 0 1-48-48V48a48 48 0 0 1 48-48h204.1A48 48 0 0 1 350 14.1L433.9 98a47.83 47.83 0 0 1 14.1 33.9zm-128-80V128h76.1zM400 464V176H296a23.94 23.94 0 0 1-24-24V48H112v416z"/><path class="cls-1" d="M276 364.35v24.12a8 8 0 0 1-8 8h-16a8 8 0 0 1-8-8v-24.29a57.26 57.26 0 0 1-31.37-11.35 8 8 0 0 1-.57-12.14l11.75-11.21a8.21 8.21 0 0 1 10.13-.73 24.08 24.08 0 0 0 12.82 3.72h28.11c6.5 0 11.8-5.92 11.8-13.19 0-5.95-3.61-11.19-8.77-12.73l-45-13.5c-18.59-5.58-31.58-23.42-31.58-43.39 0-24.52 19.05-44.44 42.67-45.07v-24.12a8 8 0 0 1 8-8h16a8 8 0 0 1 8 8v24.29a57.18 57.18 0 0 1 31.37 11.35 8 8 0 0 1 .57 12.14l-11.75 11.21a8.21 8.21 0 0 1-10.13.73 24 24 0 0 0-12.82-3.72h-28.11c-6.5 0-11.8 5.92-11.8 13.19 0 6 3.61 11.19 8.77 12.73l45 13.5c18.59 5.58 31.58 23.42 31.58 43.39 0 24.53-19.05 44.44-42.67 45.07z"/></svg>