<svg id="Layer_1" data-name="Layer 1" xmlns="http://www.w3.org/2000/svg" viewBox="0 0 512 512"><defs><style>.cls-1{fill:#cb6015}</style></defs><title>2019-portal-icon_chapters</title><circle class="cls-1" cx="99.99" cy="338" r="56"/><path class="cls-1" d="M138.39 410h-4.15a77.32 77.32 0 0 1-68.5 0h-4.15A57.61 57.61 0 0 0 4 467.6V482a24 24 0 0 0 24 24h144a24 24 0 0 0 24-24v-14.4a57.61 57.61 0 0 0-57.61-57.6z"/><circle class="cls-1" cx="412" cy="338" r="56"/><path class="cls-1" d="M450.4 410h-4.15a77.32 77.32 0 0 1-68.5 0h-4.15a57.61 57.61 0 0 0-57.6 57.6V482a24 24 0 0 0 24 24h144a24 24 0 0 0 24-24v-14.4a57.61 57.61 0 0 0-57.6-57.6z"/><circle class="cls-1" cx="252" cy="62" r="56"/><path class="cls-1" d="M290.4 134h-4.15a77.32 77.32 0 0 1-68.5 0h-4.15a57.61 57.61 0 0 0-57.6 57.6V206a24 24 0 0 0 24 24h144a24 24 0 0 0 24-24v-14.4a57.61 57.61 0 0 0-57.6-57.6z"/><rect class="cls-1" x="235.15" y="256.7" width="33.24" height="86.2" rx="8.31"/><rect class="cls-1" x="262.15" y="308.28" width="33.24" height="99.89" rx="8.31" transform="rotate(-45 278.765 358.232)"/><rect class="cls-1" x="262.15" y="308.28" width="33.24" height="99.89" rx="8.31" transform="rotate(-45 278.765 358.232)"/><rect class="cls-1" x="174.96" y="341.61" width="99.89" height="33.24" rx="8.31" transform="rotate(-45 224.913 358.228)"/></svg>