<svg id="Layer_1" data-name="Layer 1" xmlns="http://www.w3.org/2000/svg" viewBox="0 0 512 512"><defs><style>.cls-1{fill:#cb6015}</style></defs><title>2019-portal-icon_generic-list</title><path class="cls-1" d="M464 32H48A48 48 0 0 0 0 80v352a48 48 0 0 0 48 48h416a48 48 0 0 0 48-48V80a48 48 0 0 0-48-48zm-6 400H54a6 6 0 0 1-6-6V86a6 6 0 0 1 6-6h404a6 6 0 0 1 6 6v340a6 6 0 0 1-6 6zm-42-92v24a12 12 0 0 1-12 12H204a12 12 0 0 1-12-12v-24a12 12 0 0 1 12-12h200a12 12 0 0 1 12 12zm0-96v24a12 12 0 0 1-12 12H204a12 12 0 0 1-12-12v-24a12 12 0 0 1 12-12h200a12 12 0 0 1 12 12zm0-96v24a12 12 0 0 1-12 12H204a12 12 0 0 1-12-12v-24a12 12 0 0 1 12-12h200a12 12 0 0 1 12 12zm-252 12a36 36 0 1 1-36-36 36 36 0 0 1 36 36zm0 96a36 36 0 1 1-36-36 36 36 0 0 1 36 36zm0 96a36 36 0 1 1-36-36 36 36 0 0 1 36 36z"/></svg>