<svg id="Layer_1" data-name="Layer 1" xmlns="http://www.w3.org/2000/svg" viewBox="0 0 512 512"><defs><style>.cls-1{fill:#cb6015}</style></defs><title>2019-portal-icon_joint-request</title><path class="cls-1" d="M396.62 227.88a56.25 56.25 0 1 0-56.25-56.26 56.31 56.31 0 0 0 56.25 56.26zM424.74 256h-56.25a56.09 56.09 0 0 0-39.64 16.35 128.56 128.56 0 0 1 66 96.15h58A28.09 28.09 0 0 0 481 340.38v-28.13A56.3 56.3 0 0 0 424.74 256zm-225 0a98.44 98.44 0 1 0-98.44-98.44A98.39 98.39 0 0 0 199.74 256zm67.5 28.12H260a135.86 135.86 0 0 1-120.42 0h-7.29A101.28 101.28 0 0 0 31 385.38v25.31a42.2 42.2 0 0 0 42.19 42.19H326.3a42.2 42.2 0 0 0 42.19-42.19v-25.31a101.28 101.28 0 0 0-101.25-101.26z"/></svg>