<svg xmlns="http://www.w3.org/2000/svg" id="txex_mark" viewBox="0 0 72 72"><circle id="bg" cx="36" cy="36" r="34.75"/><g id="mark" fill="currentColor"><path d="M36.002 4.288c-17.515 0-31.706 14.196-31.706 31.713 0 17.515 14.191 31.707 31.706 31.707 17.507 0 31.71-14.192 31.71-31.707.001-17.517-14.202-31.713-31.71-31.713zm15.536 25.683l-2.636 7.013a1.12 1.12 0 0 0 .002.687l2.632 6.8c.073.188.258.451.407.584l.14.115c.151.133.112.239-.089.239h-2.906a.565.565 0 0 1-.492-.347l-1.522-4.114c-.071-.189-.185-.19-.257-.003l-1.567 4.119a.575.575 0 0 1-.498.345H42.44c-.201 0-.309-.156-.238-.347l2.699-7.385c.07-.188.07-.501 0-.689l-2.559-7.016c-.066-.19.04-.346.243-.346h2.478c.203 0 .42.158.484.348l1.318 3.938c.062.19.164.19.229-.002l1.26-3.935a.537.537 0 0 1 .479-.349H51.3c.201.001.309.157.238.345zM23.716 14.705h24.813a.73.73 0 0 1 .738.792l-.302 4.394a.864.864 0 0 1-.85.795h-8.201a.794.794 0 0 0-.794.793v27.63c0 .438.135 1.125.3 1.529l.483 1.19c.166.405-.059.735-.494.735H32.26c-.438 0-.657-.33-.49-.731l.497-1.197c.168-.401.306-1.09.306-1.526V21.48a.794.794 0 0 0-.793-.793h-7.7a.857.857 0 0 1-.842-.795l-.269-4.394a.744.744 0 0 1 .747-.793zm-3.065 14.941h7.35c.079 0 .146.067.146.147v2.502a.149.149 0 0 1-.146.146h-3.832a.146.146 0 0 0-.146.146v3.212c0 .08.066.146.146.146h2.812c.081 0 .146.066.146.146v2.628a.148.148 0 0 1-.146.147l-2.812.018a.15.15 0 0 0-.146.148v3.315c0 .08.066.146.146.146h3.956c.083 0 .147.064.147.148v2.625c0 .08-.064.146-.147.146h-7.049a.146.146 0 0 1-.148-.146l.013-14.736a.64.64 0 0 0-.074-.273l-.289-.488c-.038-.066-.007-.123.073-.123zm28.953 28.726c-4.035 2.536-8.893 3.935-13.675 3.935h-.273c-4.787.004-9.645-1.397-13.692-3.935-4.146-2.601-7.572-6.437-9.648-10.802-2.154-4.445-2.951-9.516-2.247-14.281a24.946 24.946 0 0 1 2.069-6.959 26.037 26.037 0 0 1 1.768-3.165c.293-.428.205-1.126.119-1.801-.108-.867-.245-1.947.693-2.389 1.024-.489 2.694.07 3.87 1.265.833.849 1.285 1.862 1.271 2.854-.025.647-.34 1.138-.578 1.453-1.906 2.657-3.109 5.921-3.469 9.427A20.126 20.126 0 0 0 16 39.621a19.77 19.77 0 0 0 1.69 5.362 20.024 20.024 0 0 0 7.447 8.304 19.6 19.6 0 0 0 10.5 3.021h.23c3.801 0 7.432-1.043 10.567-3.019 3.18-1.963 5.824-4.911 7.451-8.306a19.616 19.616 0 0 0 1.688-5.357c.327-1.916.393-3.816.194-5.648-.387-3.535-1.594-6.798-3.496-9.44-.271-.382-.547-.85-.555-1.442-.023-.922.481-2.011 1.354-2.9 1.166-1.199 2.648-1.693 3.748-1.231.975.404.84 1.498.73 2.379-.085.685-.172 1.393.119 1.81a25.03 25.03 0 0 1 1.76 3.177 24.75 24.75 0 0 1 2.073 6.964c.698 4.752-.101 9.825-2.249 14.284a25.971 25.971 0 0 1-9.647 10.793z"/><path d="M36.002 0C16.151 0-.001 16.149-.001 36.001-.001 55.854 16.151 72 36.002 72c19.85 0 35.999-16.146 35.999-35.999C72.001 16.149 55.852 0 36.002 0zm0 69.43C17.566 69.43 2.57 54.432 2.57 36.001c0-18.433 14.996-33.43 33.432-33.43 18.432 0 33.426 14.997 33.426 33.43.002 18.431-14.992 33.429-33.426 33.429z"/></g></svg>