<svg id="Layer_1" data-name="Layer 1" xmlns="http://www.w3.org/2000/svg" viewBox="0 0 512 512"><defs><style>.cls-1{fill:#cb6015}</style></defs><title>2019-portal-icon_profile</title><circle class="cls-1" cx="256" cy="197.05" r="90.05"/><path class="cls-1" d="M256 8C119 8 8 119.08 8 256s111 248 248 248 248-111 248-248S393 8 256 8zm149.65 380.74c-19.32-36-56.83-60.72-100.53-60.72a24.91 24.91 0 0 0-7.27 1.13 127.57 127.57 0 0 1-83.7 0 24.91 24.91 0 0 0-7.27-1.13c-43.7 0-81.21 24.76-100.53 60.72a200 200 0 1 1 299.3 0z"/></svg>