<svg id="Layer_1" data-name="Layer 1" xmlns="http://www.w3.org/2000/svg" viewBox="0 0 512 512"><defs><style>.cls-1{fill:#cb6015}</style></defs><title>2019-portal-icon_event-scheduled</title><path class="cls-1" d="M432 64h-48V12a12 12 0 0 0-12-12h-40a12 12 0 0 0-12 12v52H192V12a12 12 0 0 0-12-12h-40a12 12 0 0 0-12 12v52H80a48 48 0 0 0-48 48v352a48 48 0 0 0 48 48h352a48 48 0 0 0 48-48V112a48 48 0 0 0-48-48zm-6 400H86a6 6 0 0 1-6-6V160h352v298a6 6 0 0 1-6 6zm-52.85-200.65L230.84 404.52a12 12 0 0 1-17-.07l-75.09-75.7a12 12 0 0 1 .07-17l22.72-22.54a12 12 0 0 1 17 .07l44.1 44.46 111.07-110.15a12 12 0 0 1 17 .07l22.54 22.72a12 12 0 0 1-.07 17z"/></svg>