<svg id="Layer_1" data-name="Layer 1" xmlns="http://www.w3.org/2000/svg" viewBox="0 0 512 512"><defs><style>.cls-1{fill:#cb6015}</style></defs><title>2019-portal-icon_questions</title><path class="cls-1" d="M256 8C119 8 8 119.08 8 256s111 248 248 248 248-111 248-248S393 8 256 8zm0 448a200 200 0 1 1 200-200 199.88 199.88 0 0 1-200 200zm107.24-255.2c0 67.05-72.42 68.08-72.42 92.86V300a12 12 0 0 1-12 12h-45.64a12 12 0 0 1-12-12v-8.66c0-35.74 27.1-50 47.58-61.51 17.56-9.85 28.32-16.55 28.32-29.58 0-17.25-22-28.7-39.78-28.7-23.19 0-33.9 11-49 30a12 12 0 0 1-16.66 2.13l-27.83-21.1a12 12 0 0 1-2.64-16.37C184.85 131.49 214.94 112 261.79 112c49.07 0 101.45 38.3 101.45 88.8zM298 368a42 42 0 1 1-42-42 42 42 0 0 1 42 42z"/></svg>