<svg id="Layer_1" data-name="Layer 1" xmlns="http://www.w3.org/2000/svg" viewBox="0 0 512 512"><defs><style>.cls-1{fill:#cb6015}</style></defs><title>2019-portal-icon_gift-membership</title><path class="cls-1" d="M92.25 429.91a26.22 26.22 0 0 0 26.25 26.25h111.25V233.29H92.25zm190 26.25H393.5a26.22 26.22 0 0 0 26.25-26.25V233.29h-137.5zm167.5-305.32h-44.54A71.5 71.5 0 0 0 413.5 118a72.29 72.29 0 0 0-72.19-72.19c-34.12 0-56.19 17.47-84.49 56-28.3-38.56-50.37-56-84.49-56A72.29 72.29 0 0 0 100.14 118a70.52 70.52 0 0 0 8.29 32.81H62.25A26.25 26.25 0 0 0 36 177.09v45.62a13.17 13.17 0 0 0 13.12 13.13A12.94 12.94 0 0 0 62.07 223l.18-29.12h387.5l.18 29.12a12.94 12.94 0 0 0 12.94 12.88A13.17 13.17 0 0 0 476 222.71v-45.62a26.25 26.25 0 0 0-26.25-26.25zm-277.5 0a32.82 32.82 0 1 1 0-65.63c16.32 0 28.38 2.71 70.63 65.63zm169.06 0h-70.63c42.17-62.75 53.9-65.63 70.63-65.63a32.82 32.82 0 0 1 0 65.63z"/></svg>