<svg id="Layer_1" data-name="Layer 1" xmlns="http://www.w3.org/2000/svg" viewBox="0 0 512 512"><defs><style>.cls-1{fill:#cb6015}</style></defs><title>2019-portal-icon_event-generic</title><path class="cls-1" d="M433 65h-48V17a16 16 0 0 0-16-16h-32a16 16 0 0 0-16 16v48H193V17a16 16 0 0 0-16-16h-32a16 16 0 0 0-16 16v48H81a48 48 0 0 0-48 48v352a48 48 0 0 0 48 48h352a48 48 0 0 0 48-48V113a48 48 0 0 0-48-48zm0 96v80h-96v-80zM209 353v-80h96v80zm96 32v80h-96v-80zm-128-32H81v-80h96zm32-112v-80h96v80zm128 32h96v80h-96zM177 161v80H81v-80zM81 459v-74h96v80H87a6 6 0 0 1-6-6zm346 6h-90v-80h96v74a6 6 0 0 1-6 6z"/></svg>