<svg id="Layer_1" data-name="Layer 1" xmlns="http://www.w3.org/2000/svg" viewBox="0 0 512 512"><defs><style>.cls-1{fill:#cb6015}</style></defs><title>2019-portal-icon_pay-updatecard</title><path class="cls-1" d="M469.24 56.89H42.76A42.7 42.7 0 0 0 0 99.56v312.88a42.7 42.7 0 0 0 42.76 42.67h426.48A42.7 42.7 0 0 0 512 412.44V99.56a42.7 42.7 0 0 0-42.76-42.67zM48.09 99.56h415.82a5.35 5.35 0 0 1 5.33 5.33v37.33H42.76v-37.33a5.35 5.35 0 0 1 5.33-5.33zm415.82 312.88H48.09a5.35 5.35 0 0 1-5.33-5.33V256h426.48v151.11a5.35 5.35 0 0 1-5.33 5.33zm-293.24-88.88v35.55A10.7 10.7 0 0 1 160 369.78H96a10.7 10.7 0 0 1-10.67-10.67v-35.55A10.7 10.7 0 0 1 96 312.89h64a10.7 10.7 0 0 1 10.67 10.67zm170.66 0v35.55a10.7 10.7 0 0 1-10.66 10.67H209.78a10.7 10.7 0 0 1-10.67-10.67v-35.55a10.7 10.7 0 0 1 10.67-10.67h120.89a10.7 10.7 0 0 1 10.66 10.67z"/></svg>