<svg id="alcalde_logo" xmlns="http://www.w3.org/2000/svg" viewBox="117 93 354 85"><style>.st0{fill:#ca6228}.st1{fill:#231f20}</style><path class="st0" d="M159 93.8c-23.2 0-42 18.8-42 42s18.8 42 42 42 42-18.8 42-42-18.8-42-42-42zm0 80.9c-21.5 0-39-17.5-39-39s17.5-39 39-39 39 17.5 39 39c0 21.6-17.5 39-39 39z"/><path class="st0" d="M159 98.8c-20.4 0-37 16.6-37 37s16.6 37 37 37 37-16.6 37-37c0-20.5-16.6-37-37-37zm18.1 29.9l-3.1 8.2c-.1.2-.1.6 0 .8l3.1 7.9c.1.2.3.5.5.7l.2.1c.2.2.1.3-.1.3h-3.4c-.2 0-.5-.2-.6-.4l-1.8-4.8c-.1-.2-.2-.2-.3 0l-1.8 4.8c-.1.2-.3.4-.6.4h-2.7c-.2 0-.4-.2-.3-.4l3.2-8.6c.1-.2.1-.6 0-.8l-3-8.2c-.1-.2 0-.4.3-.4h2.9c.2 0 .5.2.6.4l1.5 4.6c.1.2.2.2.3 0l1.5-4.6c.1-.2.3-.4.6-.4h2.9c.1 0 .2.2.1.4zm-32.4-17.8h28.9c.5 0 .9.4.9.9l-.4 5.1c0 .5-.5.9-1 .9h-9.6c-.5 0-.9.4-.9.9V151c0 .5.2 1.3.3 1.8l.6 1.4c.2.5-.1.9-.6.9h-8.3c-.5 0-.8-.4-.6-.9l.6-1.4c.2-.5.4-1.3.4-1.8v-32.2c0-.5-.4-.9-.9-.9h-9c-.5 0-1-.4-1-.9l-.3-5.1c0-.6.4-1 .9-1zm-3.6 17.4h8.6c.1 0 .2.1.2.2v2.9c0 .1-.1.2-.2.2h-4.5c-.1 0-.2.1-.2.2v3.7c0 .1.1.2.2.2h3.3c.1 0 .2.1.2.2v3.1c0 .1-.1.2-.2.2h-3.3c-.1 0-.2.1-.2.2v3.9c0 .1.1.2.2.2h4.6c.1 0 .2.1.2.2v3.1c0 .1-.1.2-.2.2h-8.2c-.1 0-.2-.1-.2-.2v-17.2c0-.1 0-.2-.1-.3l-.3-.6c0-.3 0-.4.1-.4zm33.8 33.5c-4.7 3-10.4 4.6-16 4.6h-.3c-5.6 0-11.3-1.6-16-4.6-4.8-3-8.8-7.5-11.3-12.6-2.5-5.2-3.4-11.1-2.6-16.7.4-2.8 1.2-5.5 2.4-8.1.6-1.3 1.3-2.5 2.1-3.7.3-.5.2-1.3.1-2.1-.1-1-.3-2.3.8-2.8 1.2-.6 3.1.1 4.5 1.5 1 1 1.5 2.2 1.5 3.3 0 .8-.4 1.3-.7 1.7-2.2 3.1-3.6 6.9-4 11-.2 2.1-.2 4.4.2 6.6.4 2.2 1 4.3 2 6.3 1.9 3.9 5 7.4 8.7 9.7 3.6 2.3 7.9 3.5 12.3 3.5h.3c4.4 0 8.7-1.2 12.3-3.5 3.7-2.3 6.8-5.7 8.7-9.7 1-2 1.6-4.1 2-6.3.4-2.2.5-4.5.2-6.6-.5-4.1-1.9-7.9-4.1-11-.3-.4-.6-1-.6-1.7 0-1.1.6-2.3 1.6-3.4 1.4-1.4 3.1-2 4.4-1.4 1.1.5 1 1.7.9 2.8-.1.8-.2 1.6.1 2.1.8 1.2 1.5 2.4 2.1 3.7 1.2 2.6 2 5.3 2.4 8.1.8 5.5-.1 11.5-2.6 16.7-2.7 5.2-6.6 9.6-11.4 12.6z"/><path class="st1" d="M330.5 145.9l1.5.5c-3.5 8.3-8.5 13.9-18.1 13.9-13 0-19.6-11.2-19.6-23.1 0-11.5 9.4-21.3 20.9-21.3 5.5 0 16 3.2 16 10.1 0 2.3-1.1 4-3.6 4-6.8 0-1.4-12.2-12.2-12.2-9.7 0-12.7 10.9-12.7 18.7 0 9 4.5 18.8 14.7 18.8 6-.1 10.7-4.2 13.1-9.4zM295 157.3v1.9h-42.9v-2.1c3.1 0 8.5 0 8.5-3.9 0-2.8-6.1-15.8-7.5-20.1h-26.5c-1 3.5-7.8 17.3-7.8 19.8 0 3.8 5.8 3.8 8.7 4.2v2.1h-18.4v-2.1c3-.2 5.9-2.1 6.9-4.7l21.7-51.9-.5-1.8c3.9-.8 6.1-2.6 8.6-5.4l23.8 54.9c2.2 5.6 3.5 8.2 8.9 9 2.5-.3 3.3-1.2 3.3-5.2v-44c0-2.4 0-4.8-1.4-6.2-.9-.8-2.2-1.4-4.2-1.5v-1.2c4.6-1.2 9-3.1 13.3-4.5v57.3c.1 5.1 1.4 5.1 5.5 5.4zm-42.5-26.4L239.7 102l-12.3 28.8h25.1zm134.1 26.4v1.9h-19.2c-1 .7-2.4 1.1-4.1 1.1-3.6 0-6.7-3.3-6.8-6.8-4.6 3.4-7.7 6.8-13.8 6.8-4.5 0-8.7-3.6-8.7-8.3 0-10.8 14.5-14.1 22.4-17.5v-10.7c0-3.9-2.4-5.1-6.1-5.1-3.5 0-8.6 2.2-8.6 4.7 0 .6.1 1.2.1 2.2 0 3.7-.8 6.4-5 6.4-1.8 0-2.9-1.8-2.9-3.3 0-2.2 1.5-4.2 3.5-6 4.4-3.7 11.5-6.8 17.2-6.8 6 0 9.2 3.6 9.2 9.5v26.2c0 1.7 0 4.6 2.3 4.6 1.6 0 2.4-2.1 2.7-3.3h1.6c-.2 1.8-.6 3.2-1.2 4.4 3.3-.3 4.3-.8 4.3-5.3v-44c0-2.4 0-4.8-1.4-6.2-.9-.8-2.2-1.4-4.2-1.5v-1.2c4.6-1.2 9-3.1 13.3-4.5v57.3c0 5.1 1.3 5.1 5.4 5.4zm-30.1-20.7c-4.4 2-15.8 5.2-15.8 11.3 0 4 2.9 7.3 7 7.3 3.7 0 5.9-1.7 8.7-3.8v-14.8zm114.2 8c-3.1 9.2-9.9 15.7-20 15.7-13.2 0-21.2-9-21.2-22.2 0-11.7 8.8-22.2 20.9-22.2 9.7 0 17.5 4.9 19.8 14.7h-32.8c-.3 1.9-.5 3.7-.5 5.6 0 10.3 6.9 17.7 17.3 17.7 6.4 0 12.3-3.8 14.8-9.7l1.7.4zm-32.6-16.4h20.3c-.4-5.6-2.5-10.4-8.9-10.4-6.4.1-9.5 5.1-11.4 10.4zm-12.3 26.1l5.1 1.6v.7l-12.8 3.7v-6.8h-.2c-3.3 4.4-7.8 6.8-13.5 6.8-12.1 0-18.9-10.5-18.9-21.7 0-13 7.8-22.7 21.2-22.7 3.9 0 7.7 1.3 11.4 3v-11.6c0-2.3.1-4.5-2.4-5.7-1.3-.6-2.3-.7-3.6-.7v-.9c4.7-1.7 9.1-3.8 13.8-5.4v59.7zm-7.7-22.6c0-12.3-8.6-14-11.6-14-10.2 0-13 10.7-13 18.9 0 16.6 10 19.7 14.2 19.7 4.1 0 7.7-2.2 10.5-5.1v-19.5z"/><path d="M470.6 171.9c0 1.3-1 2.2-2.5 2.2-.8 0-1.6-.3-2-.8l-.2.8h-.9v-2.5h.9c.4 1.1 1 1.7 2.1 1.7.7 0 1.1-.4 1.1-.9 0-.6-.7-.8-1.7-1-1.1-.3-2.4-.6-2.4-2.2 0-1.2 1.1-2.1 2.4-2.1.7 0 1.4.3 1.7.7l.2-.7h.9v2.4h-.9c-.4-1.1-.9-1.6-1.8-1.6-.7 0-1.1.4-1.1.9 0 .7.7.8 1.8 1.1 1.2.2 2.4.5 2.4 2zm-188.3 1.2h-1.1v-5h1v-.9h-3.6v.9h.9v5h-.9v.9h6v-2.8h-.8c-.5 1.7-.7 1.9-1.5 1.9zm-4.9-.1h.8v.9h-3.5v-.9h.9l-.4-1.3h-2.3l-.4 1.3h.9v.9h-2.6v-.9h.7l2.2-5.9h1.7l2 5.9zm-2.5-2l-.9-2.5-.9 2.5h1.8zm-8.2-2.9h.9v5h-.9v.9h3.6v-1h-.9v-5h.9v-.9h-3.6v1zm187.7 2.2l1.9-2.2h.8v-.9h-2.7v.9h.8l-1.3 1.6-1.1-1.6h.8v-.9h-3.5v.9h.8l2 2.6-1.9 2.3h-.8v.9h2.7v-.9h-.8l1.4-1.8 1.2 1.8h-.8v.9h3.5v-.9h-.7l-2.3-2.7zm-155.8-2.2h.9v3.1c0 .7-.1 1.2-.4 1.5-.3.3-.6.4-1.1.4-1 0-1.6-.4-1.6-1.7v-3.3h.9v-.9h-3.5v.9h.9v3.5c0 1.5 1 2.5 2.9 2.5s2.8-1.2 2.8-2.5v-3.5h.8v-.9h-2.7v.9zm163.2 5h-1.6V171h.6c.6 0 .6.1.8 1h.8v-2.7h-.8c-.1.8-.2.9-.8.9h-.6v-2h1.7c.9 0 1 .2 1.3 1.5h.9v-2.4h-6.4v.9h.9v5h-.9v.9h6.5v-2.7h-.9c-.4 1.3-.5 1.7-1.5 1.7zm-168.5-3.9c0 1.2-.8 2.1-2.9 2.1h-.8v1.7h1v.9H287v-.9h.9v-5h-.9v-.9h3.4c2.1.1 2.9.9 2.9 2.1zm-1.7 0c0-.8-.3-1.2-1.3-1.2h-.6v2.4h.7c.9.1 1.2-.3 1.2-1.2zm-28.5 3.9c-1.2 0-1.9-.8-1.9-2.6 0-1.9.7-2.6 1.6-2.6.9 0 1.4.6 1.8 1.9h1v-2.7h-.9l-.2.8c-.4-.5-1.1-.8-1.9-.8-1.8 0-3.3 1.5-3.3 3.6s1.4 3.5 3.5 3.5c1.8 0 2.8-1.1 3-2.9h-1c-.1 1.1-.7 1.8-1.7 1.8zm-22.9-2.5c0 2.1-1.5 3.5-3.5 3.5s-3.5-1.4-3.5-3.5 1.5-3.5 3.5-3.5c2-.1 3.5 1.3 3.5 3.5zm-1.8 0c0-1.9-.6-2.7-1.7-2.7s-1.6.8-1.6 2.7c0 1.9.6 2.7 1.7 2.7s1.6-.9 1.6-2.7zm-18.6-2.5h.9v1.9h-2.6v-1.9h.9v-.9h-3.5v.9h.9v5h-.9v.9h3.5v-1h-.9v-2.2h2.6v2.2h-.9v.9h3.5v-.9h-.9v-5h.9v-.9h-3.5v1zm8.4 5h-1.6V171h.6c.6 0 .6.1.8 1h.8v-2.7h-.8c-.1.8-.2.9-.8.9h-.6v-2h1.7c.9 0 1 .2 1.3 1.5h.9v-2.4H224v.9h.9v5h-.9v.9h6.5v-2.7h-.9c-.3 1.3-.4 1.7-1.4 1.7zm-19.9-3.2h.8c.4-1.7.6-1.9 1.4-1.9h.3v5.1h-1.1v.9h3.8v-1h-1.1v-5h.3c.8 0 1 .3 1.4 1.9h.8v-2.7h-6.6v2.7zm39.6-1.8h.9v5h-.9v.9h3.7v-1h-1.1v-2h.4c.6 0 .7.1.8 1h.8v-2.8h-.8c-.1.8-.2.9-.8.9h-.4v-2.2h1.4c.9 0 1.1.2 1.4 1.6h.9v-2.4h-6.3v1zm7.1 0h.9v5h-.9v.9h3.6v-1h-.9v-5h.9v-.9H255v1zm-14.1 0h.9v5h-.9v.9h3.7v-1h-1.1v-2h.4c.6 0 .7.1.8 1h.8v-2.8h-.8c-.1.8-.2.9-.8.9h-.4v-2.2h1.4c.9 0 1.1.2 1.4 1.6h.9v-2.4h-6.3v1zm206.1 5h-1.6V171h.6c.6 0 .6.1.8 1h.8v-2.7h-.8c-.1.8-.2.9-.8.9h-.6v-2h1.7c.9 0 1 .2 1.3 1.5h.9v-2.4h-6.4v.9h.9v5h-.9v.9h6.5v-2.7h-.9c-.3 1.3-.5 1.7-1.5 1.7zm-67-3.2h.8c.4-1.7.6-1.9 1.4-1.9h.3v5.1h-1.1v.9h3.8v-1h-1.1v-5h.3c.8 0 1 .3 1.4 1.9h.8v-2.7H380v2.7zm-9.6.7c0 2.1-1.5 3.5-3.5 3.5s-3.5-1.4-3.5-3.5 1.5-3.5 3.5-3.5c2.1-.1 3.5 1.3 3.5 3.5zm-1.8 0c0-1.9-.6-2.7-1.7-2.7s-1.6.8-1.6 2.7c0 1.9.6 2.7 1.7 2.7s1.6-.9 1.6-2.7zm2.6-2.5h.9v5h-.9v.9h3.7v-1h-1.1v-2h.4c.6 0 .7.1.8 1h.8v-2.8h-.8c-.1.8-.2.9-.8.9h-.4v-2.2h1.4c.9 0 1.1.2 1.4 1.6h.9v-2.4h-6.3v1zm-12.9 0h.9v3.8h-.1l-2.9-4.7h-2.9v.9h.9v5h-.9v.9h2.7v-1h-.9v-4.2h.1l3.2 5.2h1.7v-5.9h.9v-.9h-2.7v.9zm-5.6 2.5c0 2.1-1.5 3.5-3.5 3.5s-3.5-1.4-3.5-3.5 1.5-3.5 3.5-3.5c2-.1 3.5 1.3 3.5 3.5zm-1.9 0c0-1.9-.6-2.7-1.7-2.7s-1.6.8-1.6 2.7c0 1.9.6 2.7 1.7 2.7s1.6-.9 1.6-2.7zm73-.3l1.9-2.2h.8v-.9h-2.7v.9h.8l-1.3 1.6-1.1-1.6h.8v-.9h-3.5v.9h.8l2 2.6-1.9 2.3h-.8v.9h2.7v-.9h-.8l1.4-1.8 1.2 1.8H423v.9h3.5v-.9h-.7l-2-2.7zm-18.9-.4h.8c.4-1.7.6-1.9 1.4-1.9h.3v5.1h-1.1v.9h3.8v-1H409v-5h.3c.8 0 1 .3 1.4 1.9h.8v-2.7h-6.6v2.7zm-13.3-1.8h.9v1.9h-2.6v-1.9h.9v-.9h-3.5v.9h.9v5h-.9v.9h3.5v-1h-.9v-2.2h2.6v2.2h-.9v.9h3.5v-.9h-.9v-5h.9v-.9h-3.5v1zm24.8 5h-1.6V171h.6c.6 0 .6.1.8 1h.8v-2.7h-.8c-.1.8-.2.9-.8.9h-.6v-2h1.7c.9 0 1 .2 1.3 1.5h.9v-2.4h-6.4v.9h.9v5h-.9v.9h6.5v-2.7h-.9c-.4 1.3-.5 1.7-1.5 1.7zm-16.5 0h-1.6V171h.6c.6 0 .6.1.8 1h.8v-2.7h-.8c-.1.8-.2.9-.8.9h-.6v-2h1.7c.9 0 1 .2 1.3 1.5h.9v-2.4h-6.4v.9h.9v5h-.9v.9h6.5v-2.7h-.9c-.3 1.3-.4 1.7-1.5 1.7zm-76.3 0c-1.2 0-1.9-.8-1.9-2.6 0-1.9.7-2.6 1.6-2.6.9 0 1.4.6 1.8 1.9h1v-2.7h-.9l-.2.8c-.4-.5-1.1-.8-1.9-.8-1.8 0-3.3 1.5-3.3 3.6s1.4 3.5 3.5 3.5c1.8 0 2.8-1.1 3-2.9h-1c-.1 1.1-.7 1.8-1.7 1.8zm109.7-.1h.8v.9h-3.5v-.9h.9l-.4-1.3h-2.3l-.4 1.3h.9v.9h-2.6v-.9h.7l2.2-5.9h1.7l2 5.9zm-2.5-2l-.9-2.5-.9 2.5h1.8zm-122.7 1.1c0 1-.7 1.9-2.9 1.9h-3.5v-1h.9v-5h-.9v-.9h3.5c2.2 0 2.7.8 2.7 1.6 0 .7-.5 1.3-1.8 1.5v.1c1.4.3 2 .9 2 1.8zm-3.8-2.1h.7c.9 0 1.2-.4 1.2-1s-.2-.9-1.2-.9h-.7v1.9zm2.1 1.9c0-.6-.4-1.1-1.4-1.1h-.7v2.2h.7c1.1 0 1.4-.3 1.4-1.1zm131.5-2.1c-1-.2-1.8-.4-1.8-1.1 0-.5.4-.9 1.1-.9.9 0 1.4.5 1.8 1.6h.9V167h-.9l-.2.7c-.3-.5-1-.7-1.7-.7-1.3 0-2.4.9-2.4 2.1 0 1.5 1.3 1.9 2.4 2.2 1 .3 1.7.4 1.7 1 0 .5-.4.9-1.1.9-1.1 0-1.6-.5-2.1-1.7h-.9v2.5h.9l.2-.8c.4.5 1.1.8 2 .8 1.5 0 2.5-.9 2.5-2.2 0-1.4-1.3-1.7-2.4-2zm-125.4 3.3h-1.1v-5h1v-.9h-3.6v.9h.9v5h-.9v.9h6v-2.8h-.8c-.5 1.7-.7 1.9-1.5 1.9zm3-5h.9v5h-.9v.9h3.6v-1h-.9v-5h.9v-.9h-3.6v1zm25.8 0h.9v5h-.9v.9h3.6v-1h-.9v-5h.9v-.9h-3.6v1zm-8 4.9h.8v.9h-3.5v-.9h.9l-.4-1.3h-2.3l-.4 1.3h.9v.9h-2.6v-.9h.7l2.2-5.9h1.7l2 5.9zm-2.5-2l-.9-2.5-.9 2.5h1.8zm3.2-1.1h.8c.4-1.7.6-1.9 1.4-1.9h.3v5.1h-1.1v.9h3.8v-1h-1.1v-5h.3c.8 0 1 .3 1.4 1.9h.8v-2.7H334v2.7z"/></svg>