<svg version="1.1" id="alcalde_logo" xmlns="http://www.w3.org/2000/svg" xmlns:xlink="http://www.w3.org/1999/xlink" x="0px" y="0px" viewBox="117 93 354 85" xml:space="preserve">
<style type="text/css">
	.st0{fill:#CA6228;}
	.st1{fill:#231F20;}
</style>
<g>
	<path class="st0" d="M159,93.8c-23.2,0-42,18.8-42,42c0,23.2,18.8,42,42,42c23.2,0,42-18.8,42-42C201,112.6,182.2,93.8,159,93.8z
		 M159,174.7c-21.5,0-39-17.5-39-39c0-21.5,17.5-39,39-39c21.5,0,39,17.5,39,39C198,157.3,180.5,174.7,159,174.7z"/>
	<path class="st0" d="M159,98.8c-20.4,0-37,16.6-37,37c0,20.4,16.6,37,37,37c20.4,0,37-16.6,37-37C196,115.3,179.4,98.8,159,98.8z
		 M177.1,128.7l-3.1,8.2c-0.1,0.2-0.1,0.6,0,0.8l3.1,7.9c0.1,0.2,0.3,0.5,0.5,0.7l0.2,0.1c0.2,0.2,0.1,0.3-0.1,0.3h-3.4
		c-0.2,0-0.5-0.2-0.6-0.4l-1.8-4.8c-0.1-0.2-0.2-0.2-0.3,0l-1.8,4.8c-0.1,0.2-0.3,0.4-0.6,0.4h-2.7c-0.2,0-0.4-0.2-0.3-0.4l3.2-8.6
		c0.1-0.2,0.1-0.6,0-0.8l-3-8.2c-0.1-0.2,0-0.4,0.3-0.4h2.9c0.2,0,0.5,0.2,0.6,0.4l1.5,4.6c0.1,0.2,0.2,0.2,0.3,0l1.5-4.6
		c0.1-0.2,0.3-0.4,0.6-0.4h2.9C177.1,128.3,177.2,128.5,177.1,128.7z M144.7,110.9h28.9c0.5,0,0.9,0.4,0.9,0.9l-0.4,5.1
		c0,0.5-0.5,0.9-1,0.9h-9.6c-0.5,0-0.9,0.4-0.9,0.9V151c0,0.5,0.2,1.3,0.3,1.8l0.6,1.4c0.2,0.5-0.1,0.9-0.6,0.9h-8.3
		c-0.5,0-0.8-0.4-0.6-0.9l0.6-1.4c0.2-0.5,0.4-1.3,0.4-1.8v-32.2c0-0.5-0.4-0.9-0.9-0.9h-9c-0.5,0-1-0.4-1-0.9l-0.3-5.1
		C143.8,111.3,144.2,110.9,144.7,110.9z M141.1,128.3h8.6c0.1,0,0.2,0.1,0.2,0.2v2.9c0,0.1-0.1,0.2-0.2,0.2h-4.5
		c-0.1,0-0.2,0.1-0.2,0.2v3.7c0,0.1,0.1,0.2,0.2,0.2h3.3c0.1,0,0.2,0.1,0.2,0.2v3.1c0,0.1-0.1,0.2-0.2,0.2l-3.3,0
		c-0.1,0-0.2,0.1-0.2,0.2v3.9c0,0.1,0.1,0.2,0.2,0.2h4.6c0.1,0,0.2,0.1,0.2,0.2v3.1c0,0.1-0.1,0.2-0.2,0.2h-8.2
		c-0.1,0-0.2-0.1-0.2-0.2l0-17.2c0-0.1,0-0.2-0.1-0.3l-0.3-0.6C141,128.4,141,128.3,141.1,128.3z M174.9,161.8
		c-4.7,3-10.4,4.6-16,4.6h-0.3c-5.6,0-11.3-1.6-16-4.6c-4.8-3-8.8-7.5-11.3-12.6c-2.5-5.2-3.4-11.1-2.6-16.7
		c0.4-2.8,1.2-5.5,2.4-8.1c0.6-1.3,1.3-2.5,2.1-3.7c0.3-0.5,0.2-1.3,0.1-2.1c-0.1-1-0.3-2.3,0.8-2.8c1.2-0.6,3.1,0.1,4.5,1.5
		c1,1,1.5,2.2,1.5,3.3c0,0.8-0.4,1.3-0.7,1.7c-2.2,3.1-3.6,6.9-4,11c-0.2,2.1-0.2,4.4,0.2,6.6c0.4,2.2,1,4.3,2,6.3
		c1.9,3.9,5,7.4,8.7,9.7c3.6,2.3,7.9,3.5,12.3,3.5h0.3c4.4,0,8.7-1.2,12.3-3.5c3.7-2.3,6.8-5.7,8.7-9.7c1-2,1.6-4.1,2-6.3
		c0.4-2.2,0.5-4.5,0.2-6.6c-0.5-4.1-1.9-7.9-4.1-11c-0.3-0.4-0.6-1-0.6-1.7c0-1.1,0.6-2.3,1.6-3.4c1.4-1.4,3.1-2,4.4-1.4
		c1.1,0.5,1,1.7,0.9,2.8c-0.1,0.8-0.2,1.6,0.1,2.1c0.8,1.2,1.5,2.4,2.1,3.7c1.2,2.6,2,5.3,2.4,8.1c0.8,5.5-0.1,11.5-2.6,16.7
		C183.6,154.4,179.7,158.8,174.9,161.8z"/>
</g>
<path class="st1" d="M330.5,145.9l1.5,0.5c-3.5,8.3-8.5,13.9-18.1,13.9c-13,0-19.6-11.2-19.6-23.1c0-11.5,9.4-21.3,20.9-21.3
	c5.5,0,16,3.2,16,10.1c0,2.3-1.1,4-3.6,4c-6.8,0-1.4-12.2-12.2-12.2c-9.7,0-12.7,10.9-12.7,18.7c0,9,4.5,18.8,14.7,18.8
	C323.4,155.2,328.1,151.1,330.5,145.9z M295,157.3v1.9h-16.4h-2.4h-24.1v-2.1c3.1,0,8.5,0,8.5-3.9c0-2.8-6.1-15.8-7.5-20.1h-26.5
	c-1,3.5-7.8,17.3-7.8,19.8c0,3.8,5.8,3.8,8.7,4.2v2.1h-18.4v-2.1c3-0.2,5.9-2.1,6.9-4.7l21.7-51.9l-0.5-1.8c3.9-0.8,6.1-2.6,8.6-5.4
	l23.8,54.9c2.2,5.6,3.5,8.2,8.9,9c2.5-0.3,3.3-1.2,3.3-5.2v-44c0-2.4,0-4.8-1.4-6.2c-0.9-0.8-2.2-1.4-4.2-1.5v-1.2
	c4.6-1.2,9-3.1,13.3-4.5v57.3C289.6,157,290.9,157,295,157.3z M252.5,130.9L239.7,102l-12.3,28.8H252.5z M386.6,157.3v1.9h-19.2
	c-1,0.7-2.4,1.1-4.1,1.1c-3.6,0-6.7-3.3-6.8-6.8c-4.6,3.4-7.7,6.8-13.8,6.8c-4.5,0-8.7-3.6-8.7-8.3c0-10.8,14.5-14.1,22.4-17.5
	v-10.7c0-3.9-2.4-5.1-6.1-5.1c-3.5,0-8.6,2.2-8.6,4.7c0,0.6,0.1,1.2,0.1,2.2c0,3.7-0.8,6.4-5,6.4c-1.8,0-2.9-1.8-2.9-3.3
	c0-2.2,1.5-4.2,3.5-6c4.4-3.7,11.5-6.8,17.2-6.8c6,0,9.2,3.6,9.2,9.5v26.2c0,1.7,0,4.6,2.3,4.6c1.6,0,2.4-2.1,2.7-3.3h1.6
	c-0.2,1.8-0.6,3.2-1.2,4.4c3.3-0.3,4.3-0.8,4.3-5.3v-44c0-2.4,0-4.8-1.4-6.2c-0.9-0.8-2.2-1.4-4.2-1.5v-1.2c4.6-1.2,9-3.1,13.3-4.5
	v57.3C381.2,157,382.5,157,386.6,157.3z M356.5,136.6c-4.4,2-15.8,5.2-15.8,11.3c0,4,2.9,7.3,7,7.3c3.7,0,5.9-1.7,8.7-3.8V136.6z
	 M470.7,144.6c-3.1,9.2-9.9,15.7-20,15.7c-13.2,0-21.2-9-21.2-22.2c0-11.7,8.8-22.2,20.9-22.2c9.7,0,17.5,4.9,19.8,14.7h-32.8
	c-0.3,1.9-0.5,3.7-0.5,5.6c0,10.3,6.9,17.7,17.3,17.7c6.4,0,12.3-3.8,14.8-9.7L470.7,144.6z M438.1,128.2h20.3
	c-0.4-5.6-2.5-10.4-8.9-10.4C443.1,117.9,440,122.9,438.1,128.2z M425.8,154.3l5.1,1.6v0.7l-12.8,3.7v-6.8h-0.2
	c-3.3,4.4-7.8,6.8-13.5,6.8c-12.1,0-18.9-10.5-18.9-21.7c0-13,7.8-22.7,21.2-22.7c3.9,0,7.7,1.3,11.4,3v-11.6c0-2.3,0.1-4.5-2.4-5.7
	c-1.3-0.6-2.3-0.7-3.6-0.7V100c4.7-1.7,9.1-3.8,13.8-5.4V154.3z M418.1,131.7c0-12.3-8.6-14-11.6-14c-10.2,0-13,10.7-13,18.9
	c0,16.6,10,19.7,14.2,19.7c4.1,0,7.7-2.2,10.5-5.1V131.7z"/>
<path d="M470.6,171.9c0,1.3-1,2.2-2.5,2.2c-0.8,0-1.6-0.3-2-0.8l-0.2,0.8h-0.9v-2.5h0.9c0.4,1.1,1,1.7,2.1,1.7
	c0.7,0,1.1-0.4,1.1-0.9c0-0.6-0.7-0.8-1.7-1c-1.1-0.3-2.4-0.6-2.4-2.2c0-1.2,1.1-2.1,2.4-2.1c0.7,0,1.4,0.3,1.7,0.7l0.2-0.7h0.9v2.4
	h-0.9c-0.4-1.1-0.9-1.6-1.8-1.6c-0.7,0-1.1,0.4-1.1,0.9c0,0.7,0.7,0.8,1.8,1.1C469.4,170.1,470.6,170.4,470.6,171.9z M282.3,173.1
	h-1.1v-5h1v-0.9h-3.6v0.9h0.9v5h-0.9v0.9h6v-2.8h-0.8C283.3,172.9,283.1,173.1,282.3,173.1z M277.4,173h0.8v0.9h-3.5V173h0.9
	l-0.4-1.3h-2.3l-0.4,1.3h0.9v0.9h-2.6V173h0.7l2.2-5.9h1.7L277.4,173z M274.9,171l-0.9-2.5h0l-0.9,2.5H274.9z M266.7,168.1h0.9v5
	h-0.9v0.9h3.6V173h-0.9v-5h0.9v-0.9h-3.6V168.1z M454.4,170.3l1.9-2.2h0.8v-0.9h-2.7v0.9h0.8l-1.3,1.6l-1.1-1.6h0.8v-0.9h-3.5v0.9
	h0.8l2,2.6l-1.9,2.3h-0.8v0.9h2.7v-0.9h-0.8l1.4-1.8l1.2,1.8h-0.8v0.9h3.5V173h-0.7L454.4,170.3z M298.6,168.1h0.9v3.1
	c0,0.7-0.1,1.2-0.4,1.5c-0.3,0.3-0.6,0.4-1.1,0.4c-1,0-1.6-0.4-1.6-1.7v-3.3h0.9v-0.9h-3.5v0.9h0.9v3.5c0,1.5,1,2.5,2.9,2.5
	c1.9,0,2.8-1.2,2.8-2.5v-3.5h0.8v-0.9h-2.7V168.1z M461.8,173.1h-1.6v-2.1h0.6c0.6,0,0.6,0.1,0.8,1h0.8v-2.7h-0.8
	c-0.1,0.8-0.2,0.9-0.8,0.9h-0.6v-2h1.7c0.9,0,1,0.2,1.3,1.5h0.9v-2.4h-6.4v0.9h0.9v5h-0.9v0.9h6.5v-2.7h-0.9
	C462.9,172.7,462.8,173.1,461.8,173.1z M293.3,169.2c0,1.2-0.8,2.1-2.9,2.1h-0.8v1.7h1v0.9h-3.6V173h0.9v-5h-0.9v-0.9h3.4
	C292.5,167.2,293.3,168,293.3,169.2z M291.6,169.2c0-0.8-0.3-1.2-1.3-1.2h-0.6v2.4h0.7C291.3,170.5,291.6,170.1,291.6,169.2z
	 M263.1,173.1c-1.2,0-1.9-0.8-1.9-2.6c0-1.9,0.7-2.6,1.6-2.6c0.9,0,1.4,0.6,1.8,1.9h1v-2.7h-0.9l-0.2,0.8c-0.4-0.5-1.1-0.8-1.9-0.8
	c-1.8,0-3.3,1.5-3.3,3.6c0,2.1,1.4,3.5,3.5,3.5c1.8,0,2.8-1.1,3-2.9h-1C264.7,172.4,264.1,173.1,263.1,173.1z M240.2,170.6
	c0,2.1-1.5,3.5-3.5,3.5c-2,0-3.5-1.4-3.5-3.5c0-2.1,1.5-3.5,3.5-3.5C238.7,167,240.2,168.4,240.2,170.6z M238.4,170.6
	c0-1.9-0.6-2.7-1.7-2.7c-1.1,0-1.6,0.8-1.6,2.7c0,1.9,0.6,2.7,1.7,2.7S238.4,172.4,238.4,170.6z M219.8,168.1h0.9v1.9h-2.6v-1.9h0.9
	v-0.9h-3.5v0.9h0.9v5h-0.9v0.9h3.5V173h-0.9v-2.2h2.6v2.2h-0.9v0.9h3.5V173h-0.9v-5h0.9v-0.9h-3.5V168.1z M228.2,173.1h-1.6v-2.1
	h0.6c0.6,0,0.6,0.1,0.8,1h0.8v-2.7h-0.8c-0.1,0.8-0.2,0.9-0.8,0.9h-0.6v-2h1.7c0.9,0,1,0.2,1.3,1.5h0.9v-2.4H224v0.9h0.9v5H224v0.9
	h6.5v-2.7h-0.9C229.3,172.7,229.2,173.1,228.2,173.1z M208.3,169.9h0.8c0.4-1.7,0.6-1.9,1.4-1.9h0.3v5.1h-1.1v0.9h3.8V173h-1.1V168
	h0.3c0.8,0,1,0.3,1.4,1.9h0.8v-2.7h-6.6V169.9z M247.9,168.1h0.9v5h-0.9v0.9h3.7V173h-1.1v-2h0.4c0.6,0,0.7,0.1,0.8,1h0.8v-2.8h-0.8
	c-0.1,0.8-0.2,0.9-0.8,0.9h-0.4v-2.2h1.4c0.9,0,1.1,0.2,1.4,1.6h0.9v-2.4h-6.3V168.1z M255,168.1h0.9v5H255v0.9h3.6V173h-0.9v-5h0.9
	v-0.9H255V168.1z M240.9,168.1h0.9v5h-0.9v0.9h3.7V173h-1.1v-2h0.4c0.6,0,0.7,0.1,0.8,1h0.8v-2.8h-0.8c-0.1,0.8-0.2,0.9-0.8,0.9
	h-0.4v-2.2h1.4c0.9,0,1.1,0.2,1.4,1.6h0.9v-2.4h-6.3V168.1z M447,173.1h-1.6v-2.1h0.6c0.6,0,0.6,0.1,0.8,1h0.8v-2.7h-0.8
	c-0.1,0.8-0.2,0.9-0.8,0.9h-0.6v-2h1.7c0.9,0,1,0.2,1.3,1.5h0.9v-2.4h-6.4v0.9h0.9v5h-0.9v0.9h6.5v-2.7h-0.9
	C448.2,172.7,448,173.1,447,173.1z M380,169.9h0.8c0.4-1.7,0.6-1.9,1.4-1.9h0.3v5.1h-1.1v0.9h3.8V173h-1.1V168h0.3
	c0.8,0,1,0.3,1.4,1.9h0.8v-2.7H380V169.9z M370.4,170.6c0,2.1-1.5,3.5-3.5,3.5c-2,0-3.5-1.4-3.5-3.5c0-2.1,1.5-3.5,3.5-3.5
	C369,167,370.4,168.4,370.4,170.6z M368.6,170.6c0-1.9-0.6-2.7-1.7-2.7c-1.1,0-1.6,0.8-1.6,2.7c0,1.9,0.6,2.7,1.7,2.7
	C368.1,173.3,368.6,172.4,368.6,170.6z M371.2,168.1h0.9v5h-0.9v0.9h3.7V173h-1.1v-2h0.4c0.6,0,0.7,0.1,0.8,1h0.8v-2.8h-0.8
	c-0.1,0.8-0.2,0.9-0.8,0.9h-0.4v-2.2h1.4c0.9,0,1.1,0.2,1.4,1.6h0.9v-2.4h-6.3V168.1z M358.3,168.1h0.9v3.8h-0.1l-2.9-4.7h-2.9v0.9
	h0.9v5h-0.9v0.9h2.7V173h-0.9v-4.2h0.1l3.2,5.2h1.7v-5.9h0.9v-0.9h-2.7V168.1z M352.7,170.6c0,2.1-1.5,3.5-3.5,3.5
	c-2,0-3.5-1.4-3.5-3.5c0-2.1,1.5-3.5,3.5-3.5C351.2,167,352.7,168.4,352.7,170.6z M350.8,170.6c0-1.9-0.6-2.7-1.7-2.7
	c-1.1,0-1.6,0.8-1.6,2.7c0,1.9,0.6,2.7,1.7,2.7C350.3,173.3,350.8,172.4,350.8,170.6z M423.8,170.3l1.9-2.2h0.8v-0.9h-2.7v0.9h0.8
	l-1.3,1.6l-1.1-1.6h0.8v-0.9h-3.5v0.9h0.8l2,2.6l-1.9,2.3h-0.8v0.9h2.7v-0.9h-0.8l1.4-1.8l1.2,1.8H423v0.9h3.5V173h-0.7L423.8,170.3
	z M404.9,169.9h0.8c0.4-1.7,0.6-1.9,1.4-1.9h0.3v5.1h-1.1v0.9h3.8V173h-1.1V168h0.3c0.8,0,1,0.3,1.4,1.9h0.8v-2.7h-6.6V169.9z
	 M391.6,168.1h0.9v1.9h-2.6v-1.9h0.9v-0.9h-3.5v0.9h0.9v5h-0.9v0.9h3.5V173h-0.9v-2.2h2.6v2.2h-0.9v0.9h3.5V173h-0.9v-5h0.9v-0.9
	h-3.5V168.1z M416.4,173.1h-1.6v-2.1h0.6c0.6,0,0.6,0.1,0.8,1h0.8v-2.7h-0.8c-0.1,0.8-0.2,0.9-0.8,0.9h-0.6v-2h1.7
	c0.9,0,1,0.2,1.3,1.5h0.9v-2.4h-6.4v0.9h0.9v5h-0.9v0.9h6.5v-2.7h-0.9C417.5,172.7,417.4,173.1,416.4,173.1z M399.9,173.1h-1.6v-2.1
	h0.6c0.6,0,0.6,0.1,0.8,1h0.8v-2.7h-0.8c-0.1,0.8-0.2,0.9-0.8,0.9h-0.6v-2h1.7c0.9,0,1,0.2,1.3,1.5h0.9v-2.4h-6.4v0.9h0.9v5h-0.9
	v0.9h6.5v-2.7h-0.9C401.1,172.7,401,173.1,399.9,173.1z M323.6,173.1c-1.2,0-1.9-0.8-1.9-2.6c0-1.9,0.7-2.6,1.6-2.6
	c0.9,0,1.4,0.6,1.8,1.9h1v-2.7h-0.9l-0.2,0.8c-0.4-0.5-1.1-0.8-1.9-0.8c-1.8,0-3.3,1.5-3.3,3.6c0,2.1,1.4,3.5,3.5,3.5
	c1.8,0,2.8-1.1,3-2.9h-1C325.2,172.4,324.6,173.1,323.6,173.1z M433.3,173h0.8v0.9h-3.5V173h0.9l-0.4-1.3h-2.3l-0.4,1.3h0.9v0.9
	h-2.6V173h0.7l2.2-5.9h1.7L433.3,173z M430.8,171l-0.9-2.5h0L429,171H430.8z M308.1,172.1c0,1-0.7,1.9-2.9,1.9h-3.5V173h0.9v-5h-0.9
	v-0.9h3.5c2.2,0,2.7,0.8,2.7,1.6c0,0.7-0.5,1.3-1.8,1.5v0.1C307.5,170.6,308.1,171.2,308.1,172.1z M304.3,170h0.7
	c0.9,0,1.2-0.4,1.2-1c0-0.6-0.2-0.9-1.2-0.9h-0.7V170z M306.4,171.9c0-0.6-0.4-1.1-1.4-1.1h-0.7v2.2h0.7
	C306.1,173,306.4,172.7,306.4,171.9z M437.9,169.8c-1-0.2-1.8-0.4-1.8-1.1c0-0.5,0.4-0.9,1.1-0.9c0.9,0,1.4,0.5,1.8,1.6h0.9V167H439
	l-0.2,0.7c-0.3-0.5-1-0.7-1.7-0.7c-1.3,0-2.4,0.9-2.4,2.1c0,1.5,1.3,1.9,2.4,2.2c1,0.3,1.7,0.4,1.7,1c0,0.5-0.4,0.9-1.1,0.9
	c-1.1,0-1.6-0.5-2.1-1.7h-0.9v2.5h0.9l0.2-0.8c0.4,0.5,1.1,0.8,2,0.8c1.5,0,2.5-0.9,2.5-2.2C440.3,170.4,439,170.1,437.9,169.8z
	 M312.5,173.1h-1.1v-5h1v-0.9h-3.6v0.9h0.9v5h-0.9v0.9h6v-2.8h-0.8C313.5,172.9,313.3,173.1,312.5,173.1z M315.5,168.1h0.9v5h-0.9
	v0.9h3.6V173h-0.9v-5h0.9v-0.9h-3.6V168.1z M341.3,168.1h0.9v5h-0.9v0.9h3.6V173H344v-5h0.9v-0.9h-3.6V168.1z M333.3,173h0.8v0.9
	h-3.5V173h0.9l-0.4-1.3h-2.3l-0.4,1.3h0.9v0.9h-2.6V173h0.7l2.2-5.9h1.7L333.3,173z M330.8,171l-0.9-2.5h0L329,171H330.8z
	 M334,169.9h0.8c0.4-1.7,0.6-1.9,1.4-1.9h0.3v5.1h-1.1v0.9h3.8V173h-1.1V168h0.3c0.8,0,1,0.3,1.4,1.9h0.8v-2.7H334V169.9z"/>
</svg>
