<?xml version="1.0" encoding="utf-8"?>
<!-- Generator: Adobe Illustrator 22.0.1, SVG Export Plug-In . SVG Version: 6.00 Build 0)  -->
<svg version="1.1" id="Layer_1" xmlns="http://www.w3.org/2000/svg" xmlns:xlink="http://www.w3.org/1999/xlink" x="0px" y="0px"
	 viewBox="0 0 28 28.8" style="enable-background:new 0 0 28 28.8;" xml:space="preserve">
<style type="text/css">
	.st0{clip-path:url(#SVGID_2_);}
	.st1{clip-path:url(#SVGID_4_);fill:#37354C;}
</style>
<g>
	<defs>
		<path id="SVGID_1_" d="M22.3,0.8c2.8,0,5.1,2.3,5.1,5.1v17.1c0,2.8-2.3,5.1-5.1,5.1h-3.4V17.6h3.6l0.5-4.1h-4.1v-2.6
			c0-1.2,0.3-2,2.1-2l2.2,0V5.1C22.8,5.1,21.5,5,20,5c-3.2,0-5.3,1.9-5.3,5.5v3.1h-3.6v4.1h3.6v10.6H5.1C2.3,28.3,0,26,0,23.1V6
			c0-2.8,2.3-5.1,5.1-5.1H22.3z"/>
	</defs>
	<clipPath id="SVGID_2_">
		<use xlink:href="#SVGID_1_"  style="overflow:visible;"/>
	</clipPath>
	<g class="st0">
		<defs>
			<rect id="SVGID_3_" x="-996" y="-358" width="1300" height="3592"/>
		</defs>
		<clipPath id="SVGID_4_">
			<use xlink:href="#SVGID_3_"  style="overflow:visible;"/>
		</clipPath>
		<rect x="-5" y="-4.2" class="st1" width="37.4" height="37.4"/>
	</g>
</g>
</svg>
