<?xml version="1.0" encoding="utf-8"?>
<!-- Generator: Adobe Illustrator 22.0.1, SVG Export Plug-In . SVG Version: 6.00 Build 0)  -->
<svg version="1.1" id="Layer_1" xmlns="http://www.w3.org/2000/svg" xmlns:xlink="http://www.w3.org/1999/xlink" x="0px" y="0px"
	 viewBox="0 0 30 28.1" style="enable-background:new 0 0 30 28.1;" xml:space="preserve">
<style type="text/css">
	.st0{clip-path:url(#SVGID_2_);}
	.st1{clip-path:url(#SVGID_4_);fill:#37354C;}
</style>
<g>
	<defs>
		<path id="SVGID_1_" d="M29.7,14.9v7.4c0,0.3-0.3,0.6-0.6,0.6h-4v2.9c0,0.9-0.8,1.7-1.7,1.7H6.3c-0.9,0-1.7-0.8-1.7-1.7v-2.9h-4
			c-0.3,0-0.6-0.3-0.6-0.6v-7.4c0-1.9,1.6-3.4,3.4-3.4h1.1V1.7C4.6,0.8,5.3,0,6.3,0h12c0.9,0,2.2,0.5,2.9,1.2l2.7,2.7
			c0.7,0.7,1.2,2,1.2,2.9v4.6h1.1C28.2,11.4,29.7,13,29.7,14.9z M27.4,14.9c0-0.6-0.5-1.1-1.1-1.1c-0.6,0-1.1,0.5-1.1,1.1
			s0.5,1.1,1.1,1.1C26.9,16,27.4,15.5,27.4,14.9z M6.9,13.7h16V6.9H20c-0.9,0-1.7-0.8-1.7-1.7V2.3H6.9V13.7z M6.9,25.1h16v-4.6h-16
			V25.1z"/>
	</defs>
	<clipPath id="SVGID_2_">
		<use xlink:href="#SVGID_1_"  style="overflow:visible;"/>
	</clipPath>
	<g class="st0">
		<defs>
			<rect id="SVGID_3_" x="-942" y="-359.9" width="1300" height="3592"/>
		</defs>
		<clipPath id="SVGID_4_">
			<use xlink:href="#SVGID_3_"  style="overflow:visible;"/>
		</clipPath>
		<rect x="-5" y="-5" class="st1" width="39.7" height="37.4"/>
	</g>
</g>
</svg>
