<svg id="Layer_1" xmlns="http://www.w3.org/2000/svg" xmlns:xlink="http://www.w3.org/1999/xlink" viewBox="0 0 28 28.8"><style>.st0{clip-path:url(#SVGID_2_)}.st1{clip-path:url(#SVGID_4_);fill:#37354c}</style><defs><path id="SVGID_1_" d="M22.3.8c2.8 0 5.1 2.3 5.1 5.1V23c0 2.8-2.3 5.1-5.1 5.1h-3.4V17.6h3.6l.5-4.1h-4.1v-2.6c0-1.2.3-2 2.1-2h2.2V5.1c-.4 0-1.7-.1-3.2-.1-3.2 0-5.3 1.9-5.3 5.5v3.1h-3.6v4.1h3.6v10.6H5.1C2.3 28.3 0 26 0 23.1V6C0 3.2 2.3.9 5.1.9h17.2z"/></defs><clipPath id="SVGID_2_"><use xlink:href="#SVGID_1_" overflow="visible"/></clipPath><g class="st0"><defs><path id="SVGID_3_" d="M-996-358H304v3592H-996z"/></defs><clipPath id="SVGID_4_"><use xlink:href="#SVGID_3_" overflow="visible"/></clipPath><path class="st1" d="M-5-4.2h37.4v37.4H-5z"/></g></svg>