<svg id="Layer_1" xmlns="http://www.w3.org/2000/svg" xmlns:xlink="http://www.w3.org/1999/xlink" viewBox="0 0 30 28.1"><style>.st0{clip-path:url(#SVGID_2_)}.st1{clip-path:url(#SVGID_4_);fill:#37354c}</style><defs><path id="SVGID_1_" d="M29.7 14.9v7.4c0 .3-.3.6-.6.6h-4v2.9c0 .9-.8 1.7-1.7 1.7H6.3c-.9 0-1.7-.8-1.7-1.7v-2.9h-4c-.3 0-.6-.3-.6-.6v-7.4c0-1.9 1.6-3.4 3.4-3.4h1.1V1.7C4.6.8 5.3 0 6.3 0h12c.9 0 2.2.5 2.9 1.2l2.7 2.7c.7.7 1.2 2 1.2 2.9v4.6h1.1c2 0 3.5 1.6 3.5 3.5zm-2.3 0c0-.6-.5-1.1-1.1-1.1-.6 0-1.1.5-1.1 1.1s.5 1.1 1.1 1.1c.6 0 1.1-.5 1.1-1.1zM6.9 13.7h16V6.9H20c-.9 0-1.7-.8-1.7-1.7V2.3H6.9v11.4zm0 11.4h16v-4.6h-16v4.6z"/></defs><clipPath id="SVGID_2_"><use xlink:href="#SVGID_1_" overflow="visible"/></clipPath><g class="st0"><defs><path id="SVGID_3_" d="M-942-359.9H358v3592H-942z"/></defs><clipPath id="SVGID_4_"><use xlink:href="#SVGID_3_" overflow="visible"/></clipPath><path class="st1" d="M-5-5h39.7v37.4H-5z"/></g></svg>