<?xml version="1.0" encoding="utf-8"?>
<!-- Generator: Adobe Illustrator 22.0.1, SVG Export Plug-In . SVG Version: 6.00 Build 0)  -->
<svg version="1.1" id="Layer_1" xmlns="http://www.w3.org/2000/svg" xmlns:xlink="http://www.w3.org/1999/xlink" x="0px" y="0px"
	 viewBox="0 0 28 28" style="enable-background:new 0 0 28 28;" xml:space="preserve">
<style type="text/css">
	.st0{clip-path:url(#SVGID_2_);}
	.st1{clip-path:url(#SVGID_4_);fill:#37354C;}
	.st2{clip-path:url(#SVGID_6_);}
	.st3{clip-path:url(#SVGID_8_);fill:#37354C;}
</style>
<g>
	<defs>
		<path id="SVGID_1_" d="M-389.7,1423c2.8,0,5.1,2.3,5.1,5.1v17.1c0,2.8-2.3,5.1-5.1,5.1h-3.4v-10.6h3.6l0.5-4.1h-4.1v-2.6
			c0-1.2,0.3-2,2.1-2l2.2,0v-3.7c-0.4-0.1-1.7-0.2-3.2-0.2c-3.2,0-5.3,1.9-5.3,5.5v3.1h-3.6v4.1h3.6v10.6h-9.5
			c-2.8,0-5.1-2.3-5.1-5.1v-17.1c0-2.8,2.3-5.1,5.1-5.1H-389.7z"/>
	</defs>
	<clipPath id="SVGID_2_">
		<use xlink:href="#SVGID_1_"  style="overflow:visible;"/>
	</clipPath>
	<g class="st0">
		<defs>
			<rect id="SVGID_3_" x="-1408" y="1064.1" width="1300" height="3592"/>
		</defs>
		<clipPath id="SVGID_4_">
			<use xlink:href="#SVGID_3_"  style="overflow:visible;"/>
		</clipPath>
		<rect x="-417" y="1418" class="st1" width="37.4" height="37.4"/>
	</g>
</g>
<g>
	<defs>
		<path id="SVGID_5_" d="M27.4,5.1v17.1c0,2.8-2.3,5.1-5.1,5.1H5.1c-2.8,0-5.1-2.3-5.1-5.1V5.1C0,2.3,2.3,0,5.1,0h17.1
			C25.1,0,27.4,2.3,27.4,5.1z M22.9,8.6c-0.7,0.3-1.4,0.5-2.2,0.6c0.8-0.5,1.4-1.2,1.7-2.1C21.6,7.6,20.8,7.9,20,8
			c-0.7-0.7-1.7-1.2-2.7-1.2c-2.1,0-3.8,1.7-3.8,3.8c0,0.3,0,0.6,0.1,0.9c-3.1-0.2-5.9-1.6-7.8-3.9C5.5,8.1,5.3,8.8,5.3,9.4
			c0,1.3,0.6,2.4,1.6,3.1c-0.6,0-1.2-0.2-1.8-0.5v0c0,1.8,1.4,3.3,3.1,3.7c-0.3,0.1-0.6,0.1-0.9,0.1c-0.2,0-0.5,0-0.7-0.1
			c0.5,1.5,1.9,2.6,3.5,2.6c-1.3,1-2.9,1.6-4.7,1.6c-0.3,0-0.6,0-0.9-0.1c1.7,1.1,3.6,1.7,5.8,1.7C17.2,21.7,21,16,21,11
			c0-0.2,0-0.3,0-0.5C21.7,10,22.4,9.4,22.9,8.6z"/>
	</defs>
	<clipPath id="SVGID_6_">
		<use xlink:href="#SVGID_5_"  style="overflow:visible;"/>
	</clipPath>
	<g class="st2">
		<defs>
			<rect id="SVGID_7_" x="-1048" y="-358.9" width="1300" height="3592"/>
		</defs>
		<clipPath id="SVGID_8_">
			<use xlink:href="#SVGID_7_"  style="overflow:visible;"/>
		</clipPath>
		<rect x="-5" y="-5" class="st3" width="37.4" height="37.4"/>
	</g>
</g>
</svg>
