<svg id="Layer_1" xmlns="http://www.w3.org/2000/svg" xmlns:xlink="http://www.w3.org/1999/xlink" viewBox="0 0 28 28"><style>.st0{clip-path:url(#SVGID_2_)}.st1{clip-path:url(#SVGID_4_);fill:#37354c}.st2{clip-path:url(#SVGID_6_)}.st3{clip-path:url(#SVGID_8_);fill:#37354c}</style><defs><path id="SVGID_1_" d="M-389.7 1423c2.8 0 5.1 2.3 5.1 5.1v17.1c0 2.8-2.3 5.1-5.1 5.1h-3.4v-10.6h3.6l.5-4.1h-4.1v-2.6c0-1.2.3-2 2.1-2h2.2v-3.7c-.4-.1-1.7-.2-3.2-.2-3.2 0-5.3 1.9-5.3 5.5v3.1h-3.6v4.1h3.6v10.6h-9.5c-2.8 0-5.1-2.3-5.1-5.1v-17.1c0-2.8 2.3-5.1 5.1-5.1h17.1z"/></defs><clipPath id="SVGID_2_"><use xlink:href="#SVGID_1_" overflow="visible"/></clipPath><g class="st0"><defs><path id="SVGID_3_" d="M-1408 1064.1h1300v3592h-1300z"/></defs><clipPath id="SVGID_4_"><use xlink:href="#SVGID_3_" overflow="visible"/></clipPath><path class="st1" d="M-417 1418h37.4v37.4H-417z"/></g><defs><path id="SVGID_5_" d="M27.4 5.1v17.1c0 2.8-2.3 5.1-5.1 5.1H5.1C2.3 27.3 0 25 0 22.2V5.1C0 2.3 2.3 0 5.1 0h17.1c2.9 0 5.2 2.3 5.2 5.1zm-4.5 3.5c-.7.3-1.4.5-2.2.6.8-.5 1.4-1.2 1.7-2.1-.8.5-1.6.8-2.4.9-.7-.7-1.7-1.2-2.7-1.2-2.1 0-3.8 1.7-3.8 3.8 0 .3 0 .6.1.9-3.1-.2-5.9-1.6-7.8-3.9-.3.5-.5 1.2-.5 1.8 0 1.3.6 2.4 1.6 3.1-.6 0-1.2-.2-1.8-.5 0 1.8 1.4 3.3 3.1 3.7-.3.1-.6.1-.9.1-.2 0-.5 0-.7-.1.5 1.5 1.9 2.6 3.5 2.6-1.3 1-2.9 1.6-4.7 1.6-.3 0-.6 0-.9-.1 1.7 1.1 3.6 1.7 5.8 1.7C17.2 21.7 21 16 21 11v-.5c.7-.5 1.4-1.1 1.9-1.9z"/></defs><clipPath id="SVGID_6_"><use xlink:href="#SVGID_5_" overflow="visible"/></clipPath><g class="st2"><defs><path id="SVGID_7_" d="M-1048-358.9H252v3592h-1300z"/></defs><clipPath id="SVGID_8_"><use xlink:href="#SVGID_7_" overflow="visible"/></clipPath><path class="st3" d="M-5-5h37.4v37.4H-5z"/></g></svg>