<?xml version="1.0" encoding="utf-8"?>
<!-- Generator: Adobe Illustrator 22.0.1, SVG Export Plug-In . SVG Version: 6.00 Build 0)  -->
<svg version="1.1" id="Layer_1" xmlns="http://www.w3.org/2000/svg" xmlns:xlink="http://www.w3.org/1999/xlink" x="0px" y="0px"
	 viewBox="0 0 4.6 7.9" style="enable-background:new 0 0 4.6 7.9;" xml:space="preserve">
<style type="text/css">
	.st0{fill:#E6E6E6;}
</style>
<g>
	<path class="st0" d="M4.5,4.1L0.8,7.8c0,0-0.1,0.1-0.2,0.1s-0.1,0-0.2-0.1L0.1,7.4C0,7.3,0,7.3,0,7.2C0,7.1,0,7,0.1,7l3.1-3.1
		L0.1,0.9C0,0.8,0,0.7,0,0.7s0-0.1,0.1-0.2l0.4-0.4c0,0,0.1-0.1,0.2-0.1s0.1,0,0.2,0.1l3.6,3.6c0,0,0.1,0.1,0.1,0.2S4.5,4.1,4.5,4.1
		z"/>
</g>
</svg>
