<svg id="Layer_1" xmlns="http://www.w3.org/2000/svg" viewBox="0 0 177 177"><style>.st0{fill:#cb6015}.st1{fill:#fff}</style><path class="st0" d="M176.3 140.1c0 19.9-16.2 36.1-36.1 36.1H36.5c-20 0-36.1-16.2-36.1-36.1V36.5C.4 16.5 16.6.4 36.5.4h103.6c20 0 36.1 16.2 36.1 36.1v103.6z"/><path class="st1" d="M67.4 139.3c46.2 0 71.5-38.3 71.5-71.5 0-1.1 0-2.2-.1-3.2 4.9-3.5 9.2-8 12.5-13-4.5 2-9.4 3.3-14.4 4 5.2-3.1 9.2-8 11.1-13.9-4.9 2.9-10.2 5-16 6.1-4.6-4.9-11.1-7.9-18.3-7.9-13.9 0-25.1 11.3-25.1 25.1 0 2 .2 3.9.6 5.7-20.9-1.1-39.4-11.1-51.8-26.3-2.2 3.7-3.4 8-3.4 12.6 0 8.7 4.4 16.4 11.2 20.9-4.1-.1-8-1.3-11.4-3.1v.3c0 12.2 8.7 22.3 20.2 24.6-2.1.6-4.3.9-6.6.9-1.6 0-3.2-.2-4.7-.5 3.2 10 12.5 17.3 23.5 17.5-8.6 6.7-19.4 10.8-31.2 10.8-2 0-4-.1-6-.4 11 7.1 24.2 11.3 38.4 11.3"/></svg>