<?xml version="1.0" encoding="utf-8"?>
<!-- Generator: Adobe Illustrator 22.0.1, SVG Export Plug-In . SVG Version: 6.00 Build 0)  -->
<svg version="1.1" id="Layer_1" xmlns="http://www.w3.org/2000/svg" xmlns:xlink="http://www.w3.org/1999/xlink" x="0px" y="0px"
	 viewBox="0 0 177 177" style="enable-background:new 0 0 177 177;" xml:space="preserve">
<style type="text/css">
	.st0{fill:#CB6015;}
	.st1{fill:#FFFFFF;}
</style>
<g>
	<g>
		<path class="st0" d="M176.3,140.1c0,19.9-16.2,36.1-36.1,36.1H36.5c-20,0-36.1-16.2-36.1-36.1V36.5c0-20,16.2-36.1,36.1-36.1
			h103.6c20,0,36.1,16.2,36.1,36.1V140.1z"/>
		<path class="st1" d="M67.4,139.3c46.2,0,71.5-38.3,71.5-71.5c0-1.1,0-2.2-0.1-3.2c4.9-3.5,9.2-8,12.5-13c-4.5,2-9.4,3.3-14.4,4
			c5.2-3.1,9.2-8,11.1-13.9c-4.9,2.9-10.2,5-16,6.1c-4.6-4.9-11.1-7.9-18.3-7.9c-13.9,0-25.1,11.3-25.1,25.1c0,2,0.2,3.9,0.6,5.7
			c-20.9-1.1-39.4-11.1-51.8-26.3c-2.2,3.7-3.4,8-3.4,12.6c0,8.7,4.4,16.4,11.2,20.9c-4.1-0.1-8-1.3-11.4-3.1c0,0.1,0,0.2,0,0.3
			c0,12.2,8.7,22.3,20.2,24.6c-2.1,0.6-4.3,0.9-6.6,0.9c-1.6,0-3.2-0.2-4.7-0.5c3.2,10,12.5,17.3,23.5,17.5
			c-8.6,6.7-19.4,10.8-31.2,10.8c-2,0-4-0.1-6-0.4C40,135.1,53.2,139.3,67.4,139.3"/>
	</g>
</g>
</svg>
