<svg id="Layer_1" xmlns="http://www.w3.org/2000/svg" viewBox="0 0 177 177"><style>.st0{fill:#cb6015}.st1{fill:#fff}</style><path class="st0" d="M176.5 140.4c0 19.9-16.2 36.1-36.1 36.1H36.7c-20 0-36.1-16.2-36.1-36.1V36.7C.6 16.7 16.8.6 36.7.6h103.7c20 0 36.1 16.2 36.1 36.1v103.7z"/><path class="st1" d="M114 21.2H63c-22.6 0-40.9 18.3-40.9 40.9V113c0 22.6 18.3 40.9 40.9 40.9h51c22.6 0 40.9-18.3 40.9-40.9V62.1c-.1-22.6-18.4-40.9-40.9-40.9zm28.1 86.9c0 18.2-14.8 33-33 33H67.9c-18.2 0-33-14.8-33-33V67c0-18.2 14.8-33 33-33H109c18.2 0 33 14.8 33 33v41.1z"/><path class="st1" d="M90.3 52.8c-19.3 0-35 15.6-35 34.9 0 19.3 15.6 34.9 35 34.9 19.3 0 34.9-15.7 34.9-34.9s-15.6-34.9-34.9-34.9zm0 56c-11.6 0-21-9.4-21-21s9.4-21 21-21 21 9.4 21 21-9.4 21-21 21zm41.4-56.5c0 4.9-4 8.9-8.9 8.9s-8.9-4-8.9-8.9 4-8.9 8.9-8.9 8.9 4 8.9 8.9z"/></svg>