<?xml version="1.0" encoding="utf-8"?>
<!-- Generator: Adobe Illustrator 22.0.1, SVG Export Plug-In . SVG Version: 6.00 Build 0)  -->
<svg version="1.1" id="Layer_1" xmlns="http://www.w3.org/2000/svg" xmlns:xlink="http://www.w3.org/1999/xlink" x="0px" y="0px"
	 viewBox="0 0 177 177" style="enable-background:new 0 0 177 177;" xml:space="preserve">
<style type="text/css">
	.st0{fill:#CB6015;}
	.st1{fill:#FFFFFF;}
</style>
<g>
	<g>
		<path class="st0" d="M176.5,140.4c0,19.9-16.2,36.1-36.1,36.1H36.7c-20,0-36.1-16.2-36.1-36.1V36.7c0-20,16.2-36.1,36.1-36.1
			h103.7c20,0,36.1,16.2,36.1,36.1V140.4z"/>
		<g>
			<path class="st1" d="M114,21.2H63c-22.6,0-40.9,18.3-40.9,40.9V113c0,22.6,18.3,40.9,40.9,40.9H114c22.6,0,40.9-18.3,40.9-40.9
				V62.1C154.8,39.5,136.5,21.2,114,21.2z M142.1,108.1c0,18.2-14.8,33-33,33H67.9c-18.2,0-33-14.8-33-33V67c0-18.2,14.8-33,33-33
				h41.1c18.2,0,33,14.8,33,33V108.1z"/>
			<path class="st1" d="M90.3,52.8c-19.3,0-35,15.6-35,34.9c0,19.3,15.6,34.9,35,34.9c19.3,0,34.9-15.7,34.9-34.9
				C125.2,68.5,109.6,52.8,90.3,52.8z M90.3,108.8c-11.6,0-21-9.4-21-21c0-11.6,9.4-21,21-21c11.6,0,21,9.4,21,21
				C111.3,99.4,101.9,108.8,90.3,108.8z"/>
			<path class="st1" d="M131.7,52.3c0,4.9-4,8.9-8.9,8.9c-4.9,0-8.9-4-8.9-8.9c0-4.9,4-8.9,8.9-8.9
				C127.7,43.4,131.7,47.4,131.7,52.3z"/>
		</g>
	</g>
</g>
</svg>
