<?xml version="1.0" encoding="utf-8"?>
<!-- Generator: Adobe Illustrator 22.0.1, SVG Export Plug-In . SVG Version: 6.00 Build 0)  -->
<svg version="1.1" id="Layer_1" xmlns="http://www.w3.org/2000/svg" xmlns:xlink="http://www.w3.org/1999/xlink" x="0px" y="0px"
	 viewBox="0 0 177 177" style="enable-background:new 0 0 177 177;" xml:space="preserve">
<style type="text/css">
	.st0{fill:#CB6015;}
	.st1{fill:#FFFFFF;}
</style>
<g>
	<g>
		<path class="st0" d="M176.5,140.3c0,20-16.2,36.1-36.1,36.1H36.7c-20,0-36.1-16.2-36.1-36.1V36.6c0-20,16.2-36.1,36.1-36.1h103.7
			c20,0,36.1,16.2,36.1,36.1V140.3z"/>
		<path class="st1" d="M135.8,48.9H152V23.3h-20.2l0,0h-4.2c0,0-15.3-0.4-25,12.3c0,0-6.6,6.3-6.7,24.6h0v19.1h-24v27.1h24v70h27.7
			v-70h23.9l3.3-27.1h-27.2V60.2h0C123.7,58.1,124.7,48.7,135.8,48.9z"/>
	</g>
</g>
</svg>
