<svg xmlns="http://www.w3.org/2000/svg" viewBox="0 0 178.6 38.8"><style>.st0,.st1{fill:#fff}</style><g id="Color"><path class="st0" d="M3.8 33.1c0 .2.2.3.3.3h3.8c.2 0 .3-.2.3-.3V13.3c0-.2.2-.3.3-.3H12c.2 0 .3-.2.3-.3V9.2c0-.2-.2-.3-.3-.3H.5c-.2 0-.3.2-.3.3v3.4c0 .2.2.3.3.3h3c.2 0 .3.2.3.3v19.9zM28.2 8.9c-.3 0-.5.2-.4.5l3.8 10.9c.1.3.1.8 0 1.1l-3.9 11.5c-.1.3.1.5.4.5h3.2c.3 0 .7-.2.8-.5l2.1-6.4c.1-.3.3-.3.4 0l2 6.4c.1.3.4.5.7.5h3.5c.3 0 .5-.2.4-.5l-4-11.5c-.1-.3-.1-.8 0-1.1L41 9.4c.1-.3-.1-.5-.4-.5H37c-.3 0-.6.2-.7.5l-1.7 6.1c-.1.3-.2.3-.3 0l-1.8-6.1c-.1-.3-.4-.5-.7-.5h-3.6zm-2.8 24.5c.1 0 .2-.1.2-.2v-3.5c0-.1-.1-.2-.2-.2h-6.1c-.1 0-.2-.1-.2-.2V23c0-.1.1-.2.2-.2h4.4c.1 0 .2-.1.2-.2V19c0-.1-.1-.2-.2-.2h-4.4c-.1 0-.2-.1-.2-.2v-5.4c0-.1.1-.2.2-.2h6c.1 0 .2-.1.2-.2V9.1c0-.1-.1-.2-.2-.2H14.9c-.1 0-.2.1-.2.2v24c0 .1.1.2.2.2h10.5zM51.7 9.1c0-.1-.1-.2-.3-.2h-4.7c-.1 0-.2.1-.3.2l-4.1 24c0 .1.1.2.2.2h3.7c.1 0 .2-.1.3-.2l.8-4.3c0-.1.1-.2.3-.2h3c.1 0 .2.1.3.2l.7 4.3c0 .1.1.2.3.2h3.9c.1 0 .2-.1.2-.2l-4.3-24zm-3.5 15.4c-.1 0-.2-.1-.2-.2l1.1-6.4c0-.1.1-.1.1 0l1 6.4c0 .1-.1.2-.2.2h-1.8zm9.5.3c.1-.1.3-.1.3-.1h3.5s.1 0 .2.1.1.3.1.3v3.4s.4 1.3 1.9 1.3c2.6 0 1.8-2.9 1.5-3.7 0 0-.3-1-3.9-4.5-1.9-1.8-3.5-4.1-3.5-6.8 0-3.1 1.4-6.3 6.1-6.3 5.1 0 5.7 4.8 5.7 4.8l.1 3.4v.4c-.1.1-.3.1-.3.1h-3.6s-.1 0-.2-.1-.1-.3-.1-.3v-2.6s-.1-1.7-1.7-1.7c-1.7 0-2.1 2.5-1 4 1.2 1.6 2.1 2.5 4.1 4.3 3.1 3 3.1 5.3 3.1 7.2 0 2.4-2.1 5.7-5.9 5.7-4.2 0-6.3-3-6.3-5.1 0-1.5-.1-2.9-.1-3.5v-.3zm103.8 0c.1-.1.3-.1.3-.1h3.5s.1 0 .2.1.1.3.1.3v3.4s.4 1.3 1.9 1.3c2.6 0 1.8-2.9 1.5-3.7 0 0-.3-1-3.9-4.5-1.9-1.8-3.5-4.1-3.5-6.8 0-3.1 1.4-6.3 6.1-6.3 5.1 0 5.7 4.8 5.7 4.8l.1 3.4v.4c-.1.1-.3.1-.3.1h-3.6s-.1 0-.2-.1-.1-.3-.1-.3v-2.6s-.1-1.7-1.6-1.7c-1.7 0-2.1 2.5-1 4 1.2 1.6 2.1 2.5 4.1 4.3 3.1 3 3.1 5.3 3.1 7.2 0 2.4-2.1 5.7-5.9 5.7-4.2 0-6.3-3-6.3-5.1 0-1.5-.1-2.9-.1-3.5-.2-.1-.2-.2-.1-.3zM133.1 8.9c-.3 0-.5.2-.4.5l3.8 10.9c.1.3.1.8 0 1.1l-3.9 11.5c-.1.3.1.5.4.5h3.2c.3 0 .7-.2.8-.5l2.1-6.4c.1-.3.3-.3.4 0l2 6.4c.1.3.4.5.7.5h3.5c.3 0 .5-.2.4-.5l-4-11.5c-.1-.3-.1-.8 0-1.1l3.8-10.9c.1-.3-.1-.5-.4-.5H142c-.3 0-.6.2-.7.5l-1.7 6.1c-.1.3-.2.3-.3 0l-1.8-6.1c-.1-.3-.4-.5-.7-.5h-3.7zM130 33.4c.1 0 .2-.1.2-.2v-3.5c0-.1-.1-.2-.2-.2h-6.1c-.1 0-.2-.1-.2-.2V23c0-.1.1-.2.2-.2h4.4c.1 0 .2-.1.2-.2V19c0-.1-.1-.2-.2-.2h-4.4c-.1 0-.2-.1-.2-.2v-5.4c0-.1.1-.2.2-.2h6c.1 0 .2-.1.2-.2V9.2c0-.1-.1-.2-.2-.2h-10.4c-.1 0-.2.1-.2.2v24c0 .1.1.2.2.2H130zm29.2 0c.1 0 .2-.1.2-.2v-3.5c0-.1-.1-.2-.2-.2h-6.1c-.1 0-.2-.1-.2-.2V23c0-.1.1-.2.2-.2h4.4c.1 0 .2-.1.2-.2V19c0-.1-.1-.2-.2-.2h-4.4c-.1 0-.2-.1-.2-.2v-5.4c0-.1.1-.2.2-.2h6c.1 0 .2-.1.2-.2V9.2c0-.1-.1-.2-.2-.2h-10.4c-.1 0-.2.1-.2.2v24c0 .1.1.2.2.2h10.5z"/><path class="st1" d="M94.6 2.5c-9.4 0-16.9 7.6-16.9 16.9 0 9.4 7.6 16.9 16.9 16.9 9.3 0 16.9-7.6 16.9-16.9.1-9.3-7.5-16.9-16.9-16.9zm8.3 13.7l-1.4 3.7v.4l1.4 3.6c0 .1.1.2.2.3l.1.1c.1.1.1.1 0 .1h-1.6c-.1 0-.2-.1-.3-.2l-.8-2.2c0-.1-.1-.1-.1 0l-.8 2.2c0 .1-.2.2-.3.2h-1.2c-.1 0-.2-.1-.1-.2l1.4-3.9v-.4L98 16.2c0-.1 0-.2.1-.2h1.3c.1 0 .2.1.3.2l.7 2.1c0 .1.1.1.1 0l.7-2.1c0-.1.1-.2.3-.2h1.3c.1 0 .2.1.1.2zM88.1 8h13.2c.2 0 .4.2.4.4l-.2 2.3c0 .2-.2.4-.5.4h-4.4c-.2 0-.4.2-.4.4v14.8c0 .2.1.6.2.8l.3.6c.1.2 0 .4-.3.4h-3.8c-.2 0-.4-.2-.3-.4l.3-.6c.1-.2.2-.6.2-.8V11.7c0-.2-.2-.4-.4-.4h-4.1c-.2 0-.4-.2-.4-.4l-.1-2.3c-.1-.4.1-.6.3-.6zm-1.6 8h3.9s.1 0 .1.1v1.3s0 .1-.1.1h-2s-.1 0-.1.1v1.7s0 .1.1.1h1.5s.1 0 .1.1v1.4s0 .1-.1.1h-1.5s-.1 0-.1.1v1.8s0 .1.1.1h2.1s.1 0 .1.1v1.4s0 .1-.1.1h-3.8s-.1 0-.1-.1v-8l-.1-.5c-.1.1-.1 0 0 0zm15.4 15.4c-2.2 1.4-4.7 2.1-7.3 2.1h-.1c-2.6 0-5.2-.7-7.3-2.1-2.2-1.4-4-3.4-5.2-5.8-1.2-2.4-1.6-5.1-1.2-7.6.2-1.3.5-2.5 1.1-3.7.3-.6.6-1.2.9-1.7.2-.2.1-.6.1-1-.1-.5-.1-1 .4-1.3.5-.3 1.4 0 2.1.7.4.5.7 1 .7 1.5 0 .3-.2.6-.3.8-1 1.4-1.7 3.2-1.9 5-.1 1-.1 2 .1 3s.5 2 .9 2.9c.9 1.8 2.3 3.4 4 4.4 1.7 1.1 3.6 1.6 5.6 1.6h.1c2 0 4-.6 5.6-1.6 1.7-1 3.1-2.6 4-4.4.4-.9.7-1.9.9-2.9.2-1 .2-2 .1-3-.2-1.9-.9-3.6-1.9-5-.1-.2-.3-.5-.3-.8 0-.5.3-1.1.7-1.5.6-.6 1.4-.9 2-.7.5.2.4.8.4 1.3 0 .4-.1.7.1 1 .4.5.7 1.1.9 1.7.6 1.2.9 2.4 1.1 3.7.4 2.5-.1 5.2-1.2 7.6-1.1 2.4-2.9 4.4-5.1 5.8z"/><path class="st1" d="M94.6.2C84 .2 75.4 8.8 75.4 19.4S84 38.6 94.6 38.6s19.2-8.6 19.2-19.2C113.9 8.8 105.2.2 94.6.2zm0 37.1c-9.8 0-17.9-8-17.9-17.9 0-9.8 8-17.9 17.9-17.9 9.8 0 17.8 8 17.8 17.9.1 9.9-7.9 17.9-17.8 17.9z"/><path class="st0" d="M176.6 11.9c-1 0-1.8-.8-1.8-1.8s.8-1.8 1.8-1.8 1.8.8 1.8 1.8-.8 1.8-1.8 1.8zm0-3.3c-.9 0-1.5.7-1.5 1.5s.6 1.5 1.5 1.5 1.5-.7 1.5-1.5-.6-1.5-1.5-1.5zm.6 2.4c-.2 0-.3-.1-.3-.3v-.2c0-.1-.1-.3-.3-.3h-.4v.8h-.3V9.3h.8c.4 0 .6.2.6.5 0 .2-.1.3-.3.4.2 0 .3.2.3.4v.2c0 .1 0 .1.1.1v.1h-.2zm-.3-1.3c0-.1-.1-.2-.2-.2h-.4v.5h.3c.2 0 .3-.1.3-.3z"/></g></svg>