<?xml version="1.0" encoding="utf-8"?>
<!-- Generator: Adobe Illustrator 22.0.1, SVG Export Plug-In . SVG Version: 6.00 Build 0)  -->
<svg version="1.1" xmlns="http://www.w3.org/2000/svg" xmlns:xlink="http://www.w3.org/1999/xlink" x="0px" y="0px"
	 viewBox="0 0 178.6 38.8" style="enable-background:new 0 0 178.6 38.8;" xml:space="preserve">
<style type="text/css">
	.st0{fill:#FFF;}
	.st1{fill:#FFF;}
</style>
<g id="Layer_3">
</g>
<g id="White">
</g>
<g id="Color">
	<g>
		<g>
			<path class="st0" d="M3.8,33.1c0,0.2,0.2,0.3,0.3,0.3h3.8c0.2,0,0.3-0.2,0.3-0.3V13.3c0-0.2,0.2-0.3,0.3-0.3h3.5
				c0.2,0,0.3-0.2,0.3-0.3V9.2c0-0.2-0.2-0.3-0.3-0.3H0.5c-0.2,0-0.3,0.2-0.3,0.3v3.4c0,0.2,0.2,0.3,0.3,0.3h3
				c0.2,0,0.3,0.2,0.3,0.3V33.1z"/>
			<path class="st0" d="M28.2,8.9c-0.3,0-0.5,0.2-0.4,0.5l3.8,10.9c0.1,0.3,0.1,0.8,0,1.1l-3.9,11.5c-0.1,0.3,0.1,0.5,0.4,0.5h3.2
				c0.3,0,0.7-0.2,0.8-0.5l2.1-6.4c0.1-0.3,0.3-0.3,0.4,0l2,6.4c0.1,0.3,0.4,0.5,0.7,0.5h3.5c0.3,0,0.5-0.2,0.4-0.5l-4-11.5
				c-0.1-0.3-0.1-0.8,0-1.1L41,9.4c0.1-0.3-0.1-0.5-0.4-0.5H37c-0.3,0-0.6,0.2-0.7,0.5l-1.7,6.1c-0.1,0.3-0.2,0.3-0.3,0l-1.8-6.1
				c-0.1-0.3-0.4-0.5-0.7-0.5H28.2z"/>
			<path class="st0" d="M25.4,33.4c0.1,0,0.2-0.1,0.2-0.2v-3.5c0-0.1-0.1-0.2-0.2-0.2l-6.1,0c-0.1,0-0.2-0.1-0.2-0.2V23
				c0-0.1,0.1-0.2,0.2-0.2l4.4,0c0.1,0,0.2-0.1,0.2-0.2v-3.6c0-0.1-0.1-0.2-0.2-0.2h-4.4c-0.1,0-0.2-0.1-0.2-0.2v-5.4
				c0-0.1,0.1-0.2,0.2-0.2h6c0.1,0,0.2-0.1,0.2-0.2V9.1c0-0.1-0.1-0.2-0.2-0.2H14.9c-0.1,0-0.2,0.1-0.2,0.2v24
				c0,0.1,0.1,0.2,0.2,0.2H25.4z"/>
			<path class="st0" d="M51.7,9.1c0-0.1-0.1-0.2-0.3-0.2h-4.7c-0.1,0-0.2,0.1-0.3,0.2l-4.1,24c0,0.1,0.1,0.2,0.2,0.2h3.7
				c0.1,0,0.2-0.1,0.3-0.2l0.8-4.3c0-0.1,0.1-0.2,0.3-0.2h3c0.1,0,0.2,0.1,0.3,0.2l0.7,4.3c0,0.1,0.1,0.2,0.3,0.2h3.9
				c0.1,0,0.2-0.1,0.2-0.2L51.7,9.1z M48.2,24.5c-0.1,0-0.2-0.1-0.2-0.2l1.1-6.4c0-0.1,0.1-0.1,0.1,0l1,6.4c0,0.1-0.1,0.2-0.2,0.2
				H48.2z"/>
			<path class="st0" d="M57.7,24.8c0.1-0.1,0.3-0.1,0.3-0.1h3.5c0,0,0.1,0,0.2,0.1c0.1,0.1,0.1,0.3,0.1,0.3v3.4c0,0,0.4,1.3,1.9,1.3
				c2.6,0,1.8-2.9,1.5-3.7c0,0-0.3-1-3.9-4.5c-1.9-1.8-3.5-4.1-3.5-6.8c0-3.1,1.4-6.3,6.1-6.3c5.1,0,5.7,4.8,5.7,4.8l0.1,3.4
				c0,0,0,0.3,0,0.4c-0.1,0.1-0.3,0.1-0.3,0.1l-3.6,0c0,0-0.1,0-0.2-0.1c-0.1-0.1-0.1-0.3-0.1-0.3l0-2.6c0,0-0.1-1.7-1.7-1.7
				c-1.7,0-2.1,2.5-1,4c1.2,1.6,2.1,2.5,4.1,4.3c3.1,3,3.1,5.3,3.1,7.2c0,2.4-2.1,5.7-5.9,5.7c-4.2,0-6.3-3-6.3-5.1
				c0-1.5-0.1-2.9-0.1-3.5C57.7,25,57.7,24.9,57.7,24.8z"/>
			<path class="st0" d="M161.5,24.8c0.1-0.1,0.3-0.1,0.3-0.1h3.5c0,0,0.1,0,0.2,0.1c0.1,0.1,0.1,0.3,0.1,0.3v3.4
				c0,0,0.4,1.3,1.9,1.3c2.6,0,1.8-2.9,1.5-3.7c0,0-0.3-1-3.9-4.5c-1.9-1.8-3.5-4.1-3.5-6.8c0-3.1,1.4-6.3,6.1-6.3
				c5.1,0,5.7,4.8,5.7,4.8l0.1,3.4c0,0,0,0.3,0,0.4c-0.1,0.1-0.3,0.1-0.3,0.1l-3.6,0c0,0-0.1,0-0.2-0.1c-0.1-0.1-0.1-0.3-0.1-0.3
				l0-2.6c0,0-0.1-1.7-1.6-1.7c-1.7,0-2.1,2.5-1,4c1.2,1.6,2.1,2.5,4.1,4.3c3.1,3,3.1,5.3,3.1,7.2c0,2.4-2.1,5.7-5.9,5.7
				c-4.2,0-6.3-3-6.3-5.1c0-1.5-0.1-2.9-0.1-3.5C161.4,25,161.4,24.9,161.5,24.8z"/>
			<path class="st0" d="M133.1,8.9c-0.3,0-0.5,0.2-0.4,0.5l3.8,10.9c0.1,0.3,0.1,0.8,0,1.1l-3.9,11.5c-0.1,0.3,0.1,0.5,0.4,0.5h3.2
				c0.3,0,0.7-0.2,0.8-0.5l2.1-6.4c0.1-0.3,0.3-0.3,0.4,0l2,6.4c0.1,0.3,0.4,0.5,0.7,0.5h3.5c0.3,0,0.5-0.2,0.4-0.5l-4-11.5
				c-0.1-0.3-0.1-0.8,0-1.1l3.8-10.9c0.1-0.3-0.1-0.5-0.4-0.5h-3.5c-0.3,0-0.6,0.2-0.7,0.5l-1.7,6.1c-0.1,0.3-0.2,0.3-0.3,0
				l-1.8-6.1c-0.1-0.3-0.4-0.5-0.7-0.5H133.1z"/>
			<path class="st0" d="M130,33.4c0.1,0,0.2-0.1,0.2-0.2v-3.5c0-0.1-0.1-0.2-0.2-0.2l-6.1,0c-0.1,0-0.2-0.1-0.2-0.2V23
				c0-0.1,0.1-0.2,0.2-0.2l4.4,0c0.1,0,0.2-0.1,0.2-0.2V19c0-0.1-0.1-0.2-0.2-0.2h-4.4c-0.1,0-0.2-0.1-0.2-0.2v-5.4
				c0-0.1,0.1-0.2,0.2-0.2h6c0.1,0,0.2-0.1,0.2-0.2V9.2c0-0.1-0.1-0.2-0.2-0.2h-10.4c-0.1,0-0.2,0.1-0.2,0.2v24
				c0,0.1,0.1,0.2,0.2,0.2H130z"/>
			<path class="st0" d="M159.2,33.4c0.1,0,0.2-0.1,0.2-0.2v-3.5c0-0.1-0.1-0.2-0.2-0.2l-6.1,0c-0.1,0-0.2-0.1-0.2-0.2V23
				c0-0.1,0.1-0.2,0.2-0.2l4.4,0c0.1,0,0.2-0.1,0.2-0.2V19c0-0.1-0.1-0.2-0.2-0.2h-4.4c-0.1,0-0.2-0.1-0.2-0.2v-5.4
				c0-0.1,0.1-0.2,0.2-0.2h6c0.1,0,0.2-0.1,0.2-0.2V9.2c0-0.1-0.1-0.2-0.2-0.2h-10.4c-0.1,0-0.2,0.1-0.2,0.2v24
				c0,0.1,0.1,0.2,0.2,0.2H159.2z"/>
		</g>
		<g>
			<path class="st1" d="M94.6,2.5c-9.4,0-16.9,7.6-16.9,16.9c0,9.4,7.6,16.9,16.9,16.9c9.3,0,16.9-7.6,16.9-16.9
				C111.6,10.1,104,2.5,94.6,2.5z M102.9,16.2l-1.4,3.7c0,0.1,0,0.3,0,0.4l1.4,3.6c0,0.1,0.1,0.2,0.2,0.3l0.1,0.1
				c0.1,0.1,0.1,0.1,0,0.1h-1.6c-0.1,0-0.2-0.1-0.3-0.2l-0.8-2.2c0-0.1-0.1-0.1-0.1,0l-0.8,2.2c0,0.1-0.2,0.2-0.3,0.2h-1.2
				c-0.1,0-0.2-0.1-0.1-0.2l1.4-3.9c0-0.1,0-0.3,0-0.4L98,16.2c0-0.1,0-0.2,0.1-0.2h1.3c0.1,0,0.2,0.1,0.3,0.2l0.7,2.1
				c0,0.1,0.1,0.1,0.1,0l0.7-2.1c0-0.1,0.1-0.2,0.3-0.2h1.3C102.9,16,103,16.1,102.9,16.2z M88.1,8h13.2c0.2,0,0.4,0.2,0.4,0.4
				l-0.2,2.3c0,0.2-0.2,0.4-0.5,0.4h-4.4c-0.2,0-0.4,0.2-0.4,0.4v14.8c0,0.2,0.1,0.6,0.2,0.8l0.3,0.6c0.1,0.2,0,0.4-0.3,0.4h-3.8
				c-0.2,0-0.4-0.2-0.3-0.4l0.3-0.6c0.1-0.2,0.2-0.6,0.2-0.8V11.7c0-0.2-0.2-0.4-0.4-0.4h-4.1c-0.2,0-0.4-0.2-0.4-0.4l-0.1-2.3
				C87.7,8.2,87.9,8,88.1,8z M86.5,16h3.9c0,0,0.1,0,0.1,0.1v1.3c0,0,0,0.1-0.1,0.1h-2c0,0-0.1,0-0.1,0.1v1.7c0,0,0,0.1,0.1,0.1h1.5
				c0,0,0.1,0,0.1,0.1v1.4c0,0,0,0.1-0.1,0.1l-1.5,0c0,0-0.1,0-0.1,0.1v1.8c0,0,0,0.1,0.1,0.1h2.1c0,0,0.1,0,0.1,0.1v1.4
				c0,0,0,0.1-0.1,0.1h-3.8c0,0-0.1,0-0.1-0.1l0-7.9c0,0,0-0.1,0-0.1L86.5,16C86.4,16.1,86.4,16,86.5,16z M101.9,31.4
				c-2.2,1.4-4.7,2.1-7.3,2.1h-0.1c-2.6,0-5.2-0.7-7.3-2.1c-2.2-1.4-4-3.4-5.2-5.8c-1.2-2.4-1.6-5.1-1.2-7.6
				c0.2-1.3,0.5-2.5,1.1-3.7c0.3-0.6,0.6-1.2,0.9-1.7c0.2-0.2,0.1-0.6,0.1-1c-0.1-0.5-0.1-1,0.4-1.3c0.5-0.3,1.4,0,2.1,0.7
				c0.4,0.5,0.7,1,0.7,1.5c0,0.3-0.2,0.6-0.3,0.8c-1,1.4-1.7,3.2-1.9,5c-0.1,1-0.1,2,0.1,3c0.2,1,0.5,2,0.9,2.9
				c0.9,1.8,2.3,3.4,4,4.4c1.7,1.1,3.6,1.6,5.6,1.6h0.1c2,0,4-0.6,5.6-1.6c1.7-1,3.1-2.6,4-4.4c0.4-0.9,0.7-1.9,0.9-2.9
				c0.2-1,0.2-2,0.1-3c-0.2-1.9-0.9-3.6-1.9-5c-0.1-0.2-0.3-0.5-0.3-0.8c0-0.5,0.3-1.1,0.7-1.5c0.6-0.6,1.4-0.9,2-0.7
				c0.5,0.2,0.4,0.8,0.4,1.3c0,0.4-0.1,0.7,0.1,1c0.4,0.5,0.7,1.1,0.9,1.7c0.6,1.2,0.9,2.4,1.1,3.7c0.4,2.5-0.1,5.2-1.2,7.6
				C105.9,28,104.1,30,101.9,31.4z"/>
			<path class="st1" d="M94.6,0.2C84,0.2,75.4,8.8,75.4,19.4c0,10.6,8.6,19.2,19.2,19.2c10.6,0,19.2-8.6,19.2-19.2
				C113.9,8.8,105.2,0.2,94.6,0.2z M94.6,37.3c-9.8,0-17.9-8-17.9-17.9c0-9.8,8-17.9,17.9-17.9c9.8,0,17.8,8,17.8,17.9
				C112.5,29.3,104.5,37.3,94.6,37.3z"/>
		</g>
		<g>
			<path class="st0" d="M176.6,11.9c-1,0-1.8-0.8-1.8-1.8s0.8-1.8,1.8-1.8s1.8,0.8,1.8,1.8S177.6,11.9,176.6,11.9z M176.6,8.6
				c-0.9,0-1.5,0.7-1.5,1.5c0,0.8,0.6,1.5,1.5,1.5c0.9,0,1.5-0.7,1.5-1.5C178.1,9.3,177.5,8.6,176.6,8.6z M177.2,11
				c-0.2,0-0.3-0.1-0.3-0.3v-0.2c0-0.1-0.1-0.3-0.3-0.3h-0.4V11h-0.3V9.3h0.8c0.4,0,0.6,0.2,0.6,0.5v0c0,0.2-0.1,0.3-0.3,0.4
				c0.2,0,0.3,0.2,0.3,0.4v0.2c0,0.1,0,0.1,0.1,0.1V11H177.2z M176.9,9.7c0-0.1-0.1-0.2-0.2-0.2h-0.4V10h0.3
				C176.8,10,176.9,9.9,176.9,9.7L176.9,9.7z"/>
		</g>
	</g>
</g>
</svg>
