<svg xmlns="http://www.w3.org/2000/svg" xmlns:xlink="http://www.w3.org/1999/xlink"><symbol id="chevron" viewBox="0 0 7 10.8" xmlns="http://www.w3.org/2000/svg"><style>.ast0{fill:#a3a1b5}</style><path class="ast0" d="M6.8 5.7c.2-.2.2-.4 0-.6l-5-5c-.1-.1-.4-.1-.5 0L.1 1.3c-.1.1-.1.4 0 .6l3.6 3.6L.1 9c-.1.1-.1.4 0 .6l1.1 1.1c.2.2.4.2.6 0l5-5z"/></symbol><symbol id="txex-icon-chapters" viewBox="0 0 512 512" xmlns="http://www.w3.org/2000/svg"><defs><style>.bcls-1{fill:#cb6015}</style></defs><circle class="bcls-1" cx="99.99" cy="338" r="56"/><path class="bcls-1" d="M138.39 410h-4.15a77.32 77.32 0 0 1-68.5 0h-4.15A57.61 57.61 0 0 0 4 467.6V482a24 24 0 0 0 24 24h144a24 24 0 0 0 24-24v-14.4a57.61 57.61 0 0 0-57.61-57.6z"/><circle class="bcls-1" cx="412" cy="338" r="56"/><path class="bcls-1" d="M450.4 410h-4.15a77.32 77.32 0 0 1-68.5 0h-4.15a57.61 57.61 0 0 0-57.6 57.6V482a24 24 0 0 0 24 24h144a24 24 0 0 0 24-24v-14.4a57.61 57.61 0 0 0-57.6-57.6z"/><circle class="bcls-1" cx="252" cy="62" r="56"/><path class="bcls-1" d="M290.4 134h-4.15a77.32 77.32 0 0 1-68.5 0h-4.15a57.61 57.61 0 0 0-57.6 57.6V206a24 24 0 0 0 24 24h144a24 24 0 0 0 24-24v-14.4a57.61 57.61 0 0 0-57.6-57.6z"/><rect class="bcls-1" x="235.15" y="256.7" width="33.24" height="86.2" rx="8.31"/><rect class="bcls-1" x="262.15" y="308.28" width="33.24" height="99.89" rx="8.31" transform="rotate(-45 278.765 358.232)"/><rect class="bcls-1" x="262.15" y="308.28" width="33.24" height="99.89" rx="8.31" transform="rotate(-45 278.765 358.232)"/><rect class="bcls-1" x="174.96" y="341.61" width="99.89" height="33.24" rx="8.31" transform="rotate(-45 224.913 358.228)"/></symbol><symbol id="txex-icon-event-generic" viewBox="0 0 512 512" xmlns="http://www.w3.org/2000/svg"><defs><style>.ccls-1{fill:#cb6015}</style></defs><path class="ccls-1" d="M433 65h-48V17a16 16 0 0 0-16-16h-32a16 16 0 0 0-16 16v48H193V17a16 16 0 0 0-16-16h-32a16 16 0 0 0-16 16v48H81a48 48 0 0 0-48 48v352a48 48 0 0 0 48 48h352a48 48 0 0 0 48-48V113a48 48 0 0 0-48-48zm0 96v80h-96v-80zM209 353v-80h96v80zm96 32v80h-96v-80zm-128-32H81v-80h96zm32-112v-80h96v80zm128 32h96v80h-96zM177 161v80H81v-80zM81 459v-74h96v80H87a6 6 0 0 1-6-6zm346 6h-90v-80h96v74a6 6 0 0 1-6 6z"/></symbol><symbol id="txex-icon-event-scheduled" viewBox="0 0 512 512" xmlns="http://www.w3.org/2000/svg"><defs><style>.dcls-1{fill:#cb6015}</style></defs><path class="dcls-1" d="M432 64h-48V12a12 12 0 0 0-12-12h-40a12 12 0 0 0-12 12v52H192V12a12 12 0 0 0-12-12h-40a12 12 0 0 0-12 12v52H80a48 48 0 0 0-48 48v352a48 48 0 0 0 48 48h352a48 48 0 0 0 48-48V112a48 48 0 0 0-48-48zm-6 400H86a6 6 0 0 1-6-6V160h352v298a6 6 0 0 1-6 6zm-52.85-200.65L230.84 404.52a12 12 0 0 1-17-.07l-75.09-75.7a12 12 0 0 1 .07-17l22.72-22.54a12 12 0 0 1 17 .07l44.1 44.46 111.07-110.15a12 12 0 0 1 17 .07l22.54 22.72a12 12 0 0 1-.07 17z"/></symbol><symbol id="txex-icon-generic-list" viewBox="0 0 512 512" xmlns="http://www.w3.org/2000/svg"><defs><style>.ecls-1{fill:#cb6015}</style></defs><path class="ecls-1" d="M464 32H48A48 48 0 0 0 0 80v352a48 48 0 0 0 48 48h416a48 48 0 0 0 48-48V80a48 48 0 0 0-48-48zm-6 400H54a6 6 0 0 1-6-6V86a6 6 0 0 1 6-6h404a6 6 0 0 1 6 6v340a6 6 0 0 1-6 6zm-42-92v24a12 12 0 0 1-12 12H204a12 12 0 0 1-12-12v-24a12 12 0 0 1 12-12h200a12 12 0 0 1 12 12zm0-96v24a12 12 0 0 1-12 12H204a12 12 0 0 1-12-12v-24a12 12 0 0 1 12-12h200a12 12 0 0 1 12 12zm0-96v24a12 12 0 0 1-12 12H204a12 12 0 0 1-12-12v-24a12 12 0 0 1 12-12h200a12 12 0 0 1 12 12zm-252 12a36 36 0 1 1-36-36 36 36 0 0 1 36 36zm0 96a36 36 0 1 1-36-36 36 36 0 0 1 36 36zm0 96a36 36 0 1 1-36-36 36 36 0 0 1 36 36z"/></symbol><symbol id="txex-icon-gift-membership" viewBox="0 0 512 512" xmlns="http://www.w3.org/2000/svg"><defs><style>.fcls-1{fill:#cb6015}</style></defs><path class="fcls-1" d="M92.25 429.91a26.22 26.22 0 0 0 26.25 26.25h111.25V233.29H92.25zm190 26.25H393.5a26.22 26.22 0 0 0 26.25-26.25V233.29h-137.5zm167.5-305.32h-44.54A71.5 71.5 0 0 0 413.5 118a72.29 72.29 0 0 0-72.19-72.19c-34.12 0-56.19 17.47-84.49 56-28.3-38.56-50.37-56-84.49-56A72.29 72.29 0 0 0 100.14 118a70.52 70.52 0 0 0 8.29 32.81H62.25A26.25 26.25 0 0 0 36 177.09v45.62a13.17 13.17 0 0 0 13.12 13.13A12.94 12.94 0 0 0 62.07 223l.18-29.12h387.5l.18 29.12a12.94 12.94 0 0 0 12.94 12.88A13.17 13.17 0 0 0 476 222.71v-45.62a26.25 26.25 0 0 0-26.25-26.25zm-277.5 0a32.82 32.82 0 1 1 0-65.63c16.32 0 28.38 2.71 70.63 65.63zm169.06 0h-70.63c42.17-62.75 53.9-65.63 70.63-65.63a32.82 32.82 0 0 1 0 65.63z"/></symbol><symbol id="txex-icon-giving" viewBox="0 0 512 512" xmlns="http://www.w3.org/2000/svg"><defs><style>.gcls-1{fill:#cb6015}</style></defs><path class="gcls-1" d="M256 166.4c-42.42 0-76.8 40.11-76.8 89.6s34.38 89.6 76.8 89.6 76.8-40.1 76.8-89.6-34.38-89.6-76.8-89.6zm32 134.4a6.39 6.39 0 0 1-6.4 6.4h-51.2a6.39 6.39 0 0 1-6.4-6.4V288a6.39 6.39 0 0 1 6.4-6.4h12.8v-44.35l-.38.25a6.39 6.39 0 0 1-8.86-1.77l-7.1-10.65a6.39 6.39 0 0 1 1.77-8.87l12.26-8.21a19.21 19.21 0 0 1 10.65-3.22h10.86a6.39 6.39 0 0 1 6.4 6.4v70.4h12.8A6.39 6.39 0 0 1 288 288zm198.4-198.4H25.6A25.6 25.6 0 0 0 0 128v256a25.6 25.6 0 0 0 25.6 25.6h460.8A25.6 25.6 0 0 0 512 384V128a25.6 25.6 0 0 0-25.6-25.6zM473.6 320a51.2 51.2 0 0 0-51.2 51.2H89.6A51.2 51.2 0 0 0 38.4 320V192a51.2 51.2 0 0 0 51.2-51.2h332.8a51.2 51.2 0 0 0 51.2 51.2z"/></symbol><symbol id="txex-icon-joint-request" viewBox="0 0 512 512" xmlns="http://www.w3.org/2000/svg"><defs><style>.hcls-1{fill:#cb6015}</style></defs><path class="hcls-1" d="M396.62 227.88a56.25 56.25 0 1 0-56.25-56.26 56.31 56.31 0 0 0 56.25 56.26zM424.74 256h-56.25a56.09 56.09 0 0 0-39.64 16.35 128.56 128.56 0 0 1 66 96.15h58A28.09 28.09 0 0 0 481 340.38v-28.13A56.3 56.3 0 0 0 424.74 256zm-225 0a98.44 98.44 0 1 0-98.44-98.44A98.39 98.39 0 0 0 199.74 256zm67.5 28.12H260a135.86 135.86 0 0 1-120.42 0h-7.29A101.28 101.28 0 0 0 31 385.38v25.31a42.2 42.2 0 0 0 42.19 42.19H326.3a42.2 42.2 0 0 0 42.19-42.19v-25.31a101.28 101.28 0 0 0-101.25-101.26z"/></symbol><symbol id="txex-icon-joint-update" viewBox="0 0 512 512" xmlns="http://www.w3.org/2000/svg"><defs><style>.icls-1{fill:#cb6015}</style></defs><circle class="icls-1" cx="202.22" cy="154.43" r="101.57" transform="rotate(-9.22 202.183 154.42)"/><path class="icls-1" d="M351.54 334.39v-10.88h-10.88A36.92 36.92 0 0 1 304 290.05a104.38 104.38 0 0 0-32.09-5h-7.52a140.23 140.23 0 0 1-124.24 0h-7.53A104.49 104.49 0 0 0 28.1 389.49v26.12a43.54 43.54 0 0 0 43.53 43.52H332.8a43.53 43.53 0 0 0 43.53-43.52v-26.12a104.43 104.43 0 0 0-2.13-21.07 37 37 0 0 1-22.66-34.03zm126.89-99.68h-38.09v-38.08a9.71 9.71 0 0 0-9.67-9.68h-32.25a9.71 9.71 0 0 0-9.67 9.68v38.08h-38.09a9.71 9.71 0 0 0-9.67 9.68v32.24a9.7 9.7 0 0 0 9.67 9.67h38.09v38.09a9.71 9.71 0 0 0 9.67 9.68h32.25a9.71 9.71 0 0 0 9.67-9.68V286.3h38.09a9.7 9.7 0 0 0 9.67-9.67v-32.24a9.71 9.71 0 0 0-9.67-9.68z"/></symbol><symbol id="txex-icon-membership-card" viewBox="0 0 512 512" xmlns="http://www.w3.org/2000/svg"><defs><style>.jcls-1{fill:#cb6015}</style></defs><path class="jcls-1" d="M469.33 56.89H42.67A42.68 42.68 0 0 0 0 99.56v312.88a42.68 42.68 0 0 0 42.67 42.67h426.66A42.68 42.68 0 0 0 512 412.44V99.56a42.68 42.68 0 0 0-42.67-42.67zm0 355.55H269.51c.8-4 .71 3.2.71-19.91 0-28.26-26.75-51.2-59.73-51.2-9.6 0-16.62 7.11-39.82 7.11-23.91 0-29.69-7.11-39.83-7.11-33 0-59.73 22.94-59.73 51.2 0 23.11-.18 15.91.71 19.91H42.67v-256h426.66zM320 341.33h99.56a7.13 7.13 0 0 0 7.11-7.11V320a7.13 7.13 0 0 0-7.11-7.11H320a7.13 7.13 0 0 0-7.11 7.11v14.22a7.13 7.13 0 0 0 7.11 7.11zm0-56.89h99.56a7.13 7.13 0 0 0 7.11-7.11v-14.22a7.13 7.13 0 0 0-7.11-7.11H320a7.13 7.13 0 0 0-7.11 7.11v14.22a7.13 7.13 0 0 0 7.11 7.11zm0-56.88h99.56a7.13 7.13 0 0 0 7.11-7.12v-14.22a7.13 7.13 0 0 0-7.11-7.11H320a7.13 7.13 0 0 0-7.11 7.11v14.22a7.13 7.13 0 0 0 7.11 7.12zm-149.33 85.33A56.89 56.89 0 1 0 113.78 256a56.95 56.95 0 0 0 56.89 56.89z"/></symbol><symbol id="txex-icon-password" viewBox="0 0 512 512" xmlns="http://www.w3.org/2000/svg"><defs><style>.kcls-1{fill:#cb6015}</style></defs><path class="kcls-1" d="M397.43 230.29h-19.29v-57.86a122.14 122.14 0 0 0-244.28 0v57.86h-19.29A38.58 38.58 0 0 0 76 268.86v154.28a38.58 38.58 0 0 0 38.57 38.57h282.86A38.58 38.58 0 0 0 436 423.14V268.86a38.58 38.58 0 0 0-38.57-38.57zm-83.57 0H198.14v-57.86a57.86 57.86 0 0 1 115.72 0z"/></symbol><symbol id="txex-icon-pay-invoice" viewBox="0 0 512 512" xmlns="http://www.w3.org/2000/svg"><defs><style>.lcls-1{fill:#cb6015}</style></defs><path class="lcls-1" d="M448 131.9V464a48 48 0 0 1-48 48H112a48 48 0 0 1-48-48V48a48 48 0 0 1 48-48h204.1A48 48 0 0 1 350 14.1L433.9 98a47.83 47.83 0 0 1 14.1 33.9zm-128-80V128h76.1zM400 464V176H296a23.94 23.94 0 0 1-24-24V48H112v416z"/><path class="lcls-1" d="M276 364.35v24.12a8 8 0 0 1-8 8h-16a8 8 0 0 1-8-8v-24.29a57.26 57.26 0 0 1-31.37-11.35 8 8 0 0 1-.57-12.14l11.75-11.21a8.21 8.21 0 0 1 10.13-.73 24.08 24.08 0 0 0 12.82 3.72h28.11c6.5 0 11.8-5.92 11.8-13.19 0-5.95-3.61-11.19-8.77-12.73l-45-13.5c-18.59-5.58-31.58-23.42-31.58-43.39 0-24.52 19.05-44.44 42.67-45.07v-24.12a8 8 0 0 1 8-8h16a8 8 0 0 1 8 8v24.29a57.18 57.18 0 0 1 31.37 11.35 8 8 0 0 1 .57 12.14l-11.75 11.21a8.21 8.21 0 0 1-10.13.73 24 24 0 0 0-12.82-3.72h-28.11c-6.5 0-11.8 5.92-11.8 13.19 0 6 3.61 11.19 8.77 12.73l45 13.5c18.59 5.58 31.58 23.42 31.58 43.39 0 24.53-19.05 44.44-42.67 45.07z"/></symbol><symbol id="txex-icon-pay-payoff" viewBox="0 0 512 512" xmlns="http://www.w3.org/2000/svg"><defs><style>.mcls-1{fill:#cb6015}</style></defs><path class="mcls-1" d="M448 131.9V464a48 48 0 0 1-48 48H112a48 48 0 0 1-48-48V48a48 48 0 0 1 48-48h204.1A48 48 0 0 1 350 14.1L433.9 98a47.83 47.83 0 0 1 14.1 33.9zm-128-80V128h76.1zM400 464V176H296a23.94 23.94 0 0 1-24-24V48H112v416z"/><path class="mcls-1" d="M344.06 247.21L238 352.47a8.94 8.94 0 0 1-12.65-.05l-56-56.44a9 9 0 0 1 .05-12.66l16.94-16.8a8.94 8.94 0 0 1 12.65.05l32.89 33.15 82.82-82.15a8.94 8.94 0 0 1 12.65.05l16.81 16.94a8.94 8.94 0 0 1-.06 12.65z"/></symbol><symbol id="txex-icon-pay-updatecard" viewBox="0 0 512 512" xmlns="http://www.w3.org/2000/svg"><defs><style>.ncls-1{fill:#cb6015}</style></defs><path class="ncls-1" d="M469.24 56.89H42.76A42.7 42.7 0 0 0 0 99.56v312.88a42.7 42.7 0 0 0 42.76 42.67h426.48A42.7 42.7 0 0 0 512 412.44V99.56a42.7 42.7 0 0 0-42.76-42.67zM48.09 99.56h415.82a5.35 5.35 0 0 1 5.33 5.33v37.33H42.76v-37.33a5.35 5.35 0 0 1 5.33-5.33zm415.82 312.88H48.09a5.35 5.35 0 0 1-5.33-5.33V256h426.48v151.11a5.35 5.35 0 0 1-5.33 5.33zm-293.24-88.88v35.55A10.7 10.7 0 0 1 160 369.78H96a10.7 10.7 0 0 1-10.67-10.67v-35.55A10.7 10.7 0 0 1 96 312.89h64a10.7 10.7 0 0 1 10.67 10.67zm170.66 0v35.55a10.7 10.7 0 0 1-10.66 10.67H209.78a10.7 10.7 0 0 1-10.67-10.67v-35.55a10.7 10.7 0 0 1 10.67-10.67h120.89a10.7 10.7 0 0 1 10.66 10.67z"/></symbol><symbol id="txex-icon-profile" viewBox="0 0 512 512" xmlns="http://www.w3.org/2000/svg"><defs><style>.ocls-1{fill:#cb6015}</style></defs><circle class="ocls-1" cx="256" cy="197.05" r="90.05"/><path class="ocls-1" d="M256 8C119 8 8 119.08 8 256s111 248 248 248 248-111 248-248S393 8 256 8zm149.65 380.74c-19.32-36-56.83-60.72-100.53-60.72a24.91 24.91 0 0 0-7.27 1.13 127.57 127.57 0 0 1-83.7 0 24.91 24.91 0 0 0-7.27-1.13c-43.7 0-81.21 24.76-100.53 60.72a200 200 0 1 1 299.3 0z"/></symbol><symbol id="txex-icon-questions" viewBox="0 0 512 512" xmlns="http://www.w3.org/2000/svg"><defs><style>.pcls-1{fill:#cb6015}</style></defs><path class="pcls-1" d="M256 8C119 8 8 119.08 8 256s111 248 248 248 248-111 248-248S393 8 256 8zm0 448a200 200 0 1 1 200-200 199.88 199.88 0 0 1-200 200zm107.24-255.2c0 67.05-72.42 68.08-72.42 92.86V300a12 12 0 0 1-12 12h-45.64a12 12 0 0 1-12-12v-8.66c0-35.74 27.1-50 47.58-61.51 17.56-9.85 28.32-16.55 28.32-29.58 0-17.25-22-28.7-39.78-28.7-23.19 0-33.9 11-49 30a12 12 0 0 1-16.66 2.13l-27.83-21.1a12 12 0 0 1-2.64-16.37C184.85 131.49 214.94 112 261.79 112c49.07 0 101.45 38.3 101.45 88.8zM298 368a42 42 0 1 1-42-42 42 42 0 0 1 42 42z"/></symbol></svg>