<svg xmlns="http://www.w3.org/2000/svg" xmlns:xlink="http://www.w3.org/1999/xlink"><symbol id="chevron" viewBox="0 0 7 10.8" xmlns="http://www.w3.org/2000/svg"><style>.ast0{fill:#a3a1b5}</style><path class="ast0" d="M6.8 5.7c.2-.2.2-.4 0-.6l-5-5c-.1-.1-.4-.1-.5 0L.1 1.3c-.1.1-.1.4 0 .6l3.6 3.6L.1 9c-.1.1-.1.4 0 .6l1.1 1.1c.2.2.4.2.6 0l5-5z"/></symbol><symbol id="news-box-logo" viewBox="0 0 200.1 48.2" xmlns="http://www.w3.org/2000/svg"><style>.bst0{fill:#555}</style><path class="bst0" d="M16.5 15.3H16l-5.5 21.8h4.7l-1.1 4.6H.3l1.1-4.6h4.4l6.4-25.4H7.7l1.2-4.6H22l8.8 24.3h.5l4.9-19.7h-4.7l1.2-4.6h13.9l-1.1 4.6H41l-7.6 30.5h-7.1l-9.8-26.9zm31 16.4v.4c0 4.6 2.5 6 5.1 6 2.3 0 4.7-1.3 7-4.2l2.3 1.9c-2.8 3.6-6.2 6.4-11.9 6.4-6.2 0-10.3-3.8-10.3-9.8 0-8.1 6.9-15.9 15.9-15.9 5.2 0 8.1 2.5 8.1 6.1 0 4.8-4.8 8.8-16.2 9.1zm.4-2.8c6.8-.5 8.9-3.6 8.9-6.4 0-1.6-.8-2.7-2.2-2.7-3.3.1-5.8 4.8-6.7 9.1z"/><path class="bst0" d="M77.3 21.3c0 5.2-4.4 10.7-4.4 13.9 0 1.2.5 2 1.8 2 2.8 0 5.9-4.4 9.6-20.2h6.9l-1.9 8c-.8 3.4-1.3 6.1-1.3 8.3 0 3 1.3 3.7 2.9 3.7 4.8 0 8.1-8.4 8-12.9-.4.3-1.1.5-1.9.5-1.9 0-3.6-1.4-3.6-3.7 0-2.4 1.8-4.6 4.4-4.6 2.7 0 5 1.9 5 6.5 0 7.4-5.1 19.4-14.2 19.4-3.8 0-6.8-2-6.8-7.5V34c-1.9 4.5-4.8 8.3-9.5 8.3-3.8 0-6.8-2.5-6.8-6.7 0-5 4.7-10.1 4.7-13.2 0-.7-.4-.9-.8-.9-1.3 0-2.2 1.6-3.9 5l-2.7-1c2.5-5.6 5.5-8.9 9.6-8.9 3.2 0 4.9 1.9 4.9 4.7zm35.3 20.9c-6 0-10.8-2.5-10.8-6.2 0-2.4 1.7-4 3.9-4 2.5 0 3.6 1.7 3.6 3.4 0 1-.4 2.2-1.2 2.9.7.5 2.1 1.1 4 1.1 2.7 0 4.1-1.4 4.1-3.4s-2.3-3-4.7-4.1c-3.4-1.6-6.6-3.3-6.6-6.9 0-5.5 5.6-8.3 10.8-8.3 5.9 0 9.8 2.7 9.8 5.9 0 2.3-1.6 3.8-3.7 3.8-2.5 0-3.7-1.7-3.7-3.2 0-1.2.4-2.2 1.1-2.8-.4-.4-1.6-.8-3-.8-2.5 0-4.1 1.4-4.1 3.2 0 2.1 2.5 3 5.7 4.6 2.7 1.4 5.8 2.9 5.8 6.6-.2 5.6-5.4 8.2-11 8.2z"/></symbol><symbol id="txex-event-icon-date" viewBox="0 0 18 20.6" xmlns="http://www.w3.org/2000/svg"><defs><style>.cst0{fill:#37354c}</style></defs><path class="cst0" d="M18 4.5v14.1c0 .5-.2 1-.6 1.4-.4.4-.8.6-1.4.6H1.9c-.5 0-1-.2-1.4-.6-.3-.4-.5-.8-.5-1.4V4.5c0-.5.2-1 .6-1.4.4-.4.8-.6 1.4-.6h1.9v-2c0-.1 0-.2.1-.3.1-.2.2-.2.3-.2h1.6c.1 0 .2 0 .3.1.1.1.1.2.1.3v2.1h5.1v-2c0-.1 0-.2.1-.3.3-.2.4-.2.6-.2h1.6c.1 0 .2 0 .3.1.1.1.1.2.1.3v2.1H16c.5 0 1 .2 1.4.6.4.4.6.9.6 1.4zm-1.9 13.9v-12H1.9v12c0 .1 0 .1.1.2s.1.1.2.1h13.7c.1 0 .1 0 .2-.1-.1-.1 0-.1 0-.2zm-2.6-6.7v1c0 .1 0 .2-.1.3-.1.1-.2.1-.3.1H10v3.1c0 .1 0 .2-.1.3-.1.1-.2.1-.3.1h-1c-.1 0-.2 0-.3-.1-.2 0-.3-.1-.3-.3v-3.1H5c-.1 0-.2 0-.3-.1-.1-.1-.1-.2-.1-.3v-1c0-.1 0-.2.1-.3.1-.1.2-.1.3-.1h3V8.2c0-.1 0-.2.1-.3.1-.1.2-.1.3-.1h1c.1 0 .2 0 .3.1.2 0 .3.2.3.3v3.1h3c.1 0 .2 0 .3.1.2.1.2.2.2.3z"/></symbol><symbol id="txex-event-icon-location" viewBox="0 0 15 20" xml:space="preserve" xmlns="http://www.w3.org/2000/svg"><style>.dst0{fill:#37354c}</style><path class="dst0" d="M6.7 19.6c-.7-1-1.5-2.2-2.6-3.7-1.3-1.9-2.2-3.1-2.6-3.8-.6-.9-1-1.7-1.2-2.4C.1 9.1 0 8.3 0 7.5c0-1.4.3-2.6 1-3.8.7-1.1 1.6-2 2.8-2.7C4.9.3 6.2 0 7.5 0c1.4 0 2.6.3 3.8 1 1.1.7 2.1 1.6 2.7 2.7.7 1.1 1 2.4 1 3.8 0 .8-.1 1.6-.3 2.2-.2.6-.6 1.4-1.2 2.4-.4.7-1.3 1.9-2.6 3.8l-2.6 3.7c-.2.3-.5.4-.8.4-.3 0-.6-.1-.8-.4zm.8-9c.9 0 1.6-.3 2.2-.9.6-.6.9-1.3.9-2.2s-.3-1.6-.9-2.2c-.6-.6-1.3-.9-2.2-.9s-1.6.3-2.2.9c-.6.6-.9 1.3-.9 2.2s.3 1.6.9 2.2c.6.6 1.3.9 2.2.9z"/></symbol><symbol id="txex-icon-chapters" viewBox="0 0 512 512" xmlns="http://www.w3.org/2000/svg"><defs><style>.ecls-1{fill:#cb6015}</style></defs><circle class="ecls-1" cx="99.99" cy="338" r="56"/><path class="ecls-1" d="M138.39 410h-4.15a77.32 77.32 0 0 1-68.5 0h-4.15A57.61 57.61 0 0 0 4 467.6V482a24 24 0 0 0 24 24h144a24 24 0 0 0 24-24v-14.4a57.61 57.61 0 0 0-57.61-57.6z"/><circle class="ecls-1" cx="412" cy="338" r="56"/><path class="ecls-1" d="M450.4 410h-4.15a77.32 77.32 0 0 1-68.5 0h-4.15a57.61 57.61 0 0 0-57.6 57.6V482a24 24 0 0 0 24 24h144a24 24 0 0 0 24-24v-14.4a57.61 57.61 0 0 0-57.6-57.6z"/><circle class="ecls-1" cx="252" cy="62" r="56"/><path class="ecls-1" d="M290.4 134h-4.15a77.32 77.32 0 0 1-68.5 0h-4.15a57.61 57.61 0 0 0-57.6 57.6V206a24 24 0 0 0 24 24h144a24 24 0 0 0 24-24v-14.4a57.61 57.61 0 0 0-57.6-57.6z"/><rect class="ecls-1" x="235.15" y="256.7" width="33.24" height="86.2" rx="8.31"/><rect class="ecls-1" x="262.15" y="308.28" width="33.24" height="99.89" rx="8.31" transform="rotate(-45 278.765 358.232)"/><rect class="ecls-1" x="262.15" y="308.28" width="33.24" height="99.89" rx="8.31" transform="rotate(-45 278.765 358.232)"/><rect class="ecls-1" x="174.96" y="341.61" width="99.89" height="33.24" rx="8.31" transform="rotate(-45 224.913 358.228)"/></symbol><symbol id="txex-icon-event-generic" viewBox="0 0 512 512" xmlns="http://www.w3.org/2000/svg"><defs><style>.fcls-1{fill:#cb6015}</style></defs><path class="fcls-1" d="M433 65h-48V17a16 16 0 0 0-16-16h-32a16 16 0 0 0-16 16v48H193V17a16 16 0 0 0-16-16h-32a16 16 0 0 0-16 16v48H81a48 48 0 0 0-48 48v352a48 48 0 0 0 48 48h352a48 48 0 0 0 48-48V113a48 48 0 0 0-48-48zm0 96v80h-96v-80zM209 353v-80h96v80zm96 32v80h-96v-80zm-128-32H81v-80h96zm32-112v-80h96v80zm128 32h96v80h-96zM177 161v80H81v-80zM81 459v-74h96v80H87a6 6 0 0 1-6-6zm346 6h-90v-80h96v74a6 6 0 0 1-6 6z"/></symbol><symbol id="txex-icon-event-scheduled" viewBox="0 0 512 512" xmlns="http://www.w3.org/2000/svg"><defs><style>.gcls-1{fill:#cb6015}</style></defs><path class="gcls-1" d="M432 64h-48V12a12 12 0 0 0-12-12h-40a12 12 0 0 0-12 12v52H192V12a12 12 0 0 0-12-12h-40a12 12 0 0 0-12 12v52H80a48 48 0 0 0-48 48v352a48 48 0 0 0 48 48h352a48 48 0 0 0 48-48V112a48 48 0 0 0-48-48zm-6 400H86a6 6 0 0 1-6-6V160h352v298a6 6 0 0 1-6 6zm-52.85-200.65L230.84 404.52a12 12 0 0 1-17-.07l-75.09-75.7a12 12 0 0 1 .07-17l22.72-22.54a12 12 0 0 1 17 .07l44.1 44.46 111.07-110.15a12 12 0 0 1 17 .07l22.54 22.72a12 12 0 0 1-.07 17z"/></symbol><symbol id="txex-icon-generic-list" viewBox="0 0 512 512" xmlns="http://www.w3.org/2000/svg"><defs><style>.hcls-1{fill:#cb6015}</style></defs><path class="hcls-1" d="M464 32H48A48 48 0 0 0 0 80v352a48 48 0 0 0 48 48h416a48 48 0 0 0 48-48V80a48 48 0 0 0-48-48zm-6 400H54a6 6 0 0 1-6-6V86a6 6 0 0 1 6-6h404a6 6 0 0 1 6 6v340a6 6 0 0 1-6 6zm-42-92v24a12 12 0 0 1-12 12H204a12 12 0 0 1-12-12v-24a12 12 0 0 1 12-12h200a12 12 0 0 1 12 12zm0-96v24a12 12 0 0 1-12 12H204a12 12 0 0 1-12-12v-24a12 12 0 0 1 12-12h200a12 12 0 0 1 12 12zm0-96v24a12 12 0 0 1-12 12H204a12 12 0 0 1-12-12v-24a12 12 0 0 1 12-12h200a12 12 0 0 1 12 12zm-252 12a36 36 0 1 1-36-36 36 36 0 0 1 36 36zm0 96a36 36 0 1 1-36-36 36 36 0 0 1 36 36zm0 96a36 36 0 1 1-36-36 36 36 0 0 1 36 36z"/></symbol><symbol id="txex-icon-gift-membership" viewBox="0 0 512 512" xmlns="http://www.w3.org/2000/svg"><defs><style>.icls-1{fill:#cb6015}</style></defs><path class="icls-1" d="M92.25 429.91a26.22 26.22 0 0 0 26.25 26.25h111.25V233.29H92.25zm190 26.25H393.5a26.22 26.22 0 0 0 26.25-26.25V233.29h-137.5zm167.5-305.32h-44.54A71.5 71.5 0 0 0 413.5 118a72.29 72.29 0 0 0-72.19-72.19c-34.12 0-56.19 17.47-84.49 56-28.3-38.56-50.37-56-84.49-56A72.29 72.29 0 0 0 100.14 118a70.52 70.52 0 0 0 8.29 32.81H62.25A26.25 26.25 0 0 0 36 177.09v45.62a13.17 13.17 0 0 0 13.12 13.13A12.94 12.94 0 0 0 62.07 223l.18-29.12h387.5l.18 29.12a12.94 12.94 0 0 0 12.94 12.88A13.17 13.17 0 0 0 476 222.71v-45.62a26.25 26.25 0 0 0-26.25-26.25zm-277.5 0a32.82 32.82 0 1 1 0-65.63c16.32 0 28.38 2.71 70.63 65.63zm169.06 0h-70.63c42.17-62.75 53.9-65.63 70.63-65.63a32.82 32.82 0 0 1 0 65.63z"/></symbol><symbol id="txex-icon-giving" viewBox="0 0 512 512" xmlns="http://www.w3.org/2000/svg"><defs><style>.jcls-1{fill:#cb6015}</style></defs><path class="jcls-1" d="M256 166.4c-42.42 0-76.8 40.11-76.8 89.6s34.38 89.6 76.8 89.6 76.8-40.1 76.8-89.6-34.38-89.6-76.8-89.6zm32 134.4a6.39 6.39 0 0 1-6.4 6.4h-51.2a6.39 6.39 0 0 1-6.4-6.4V288a6.39 6.39 0 0 1 6.4-6.4h12.8v-44.35l-.38.25a6.39 6.39 0 0 1-8.86-1.77l-7.1-10.65a6.39 6.39 0 0 1 1.77-8.87l12.26-8.21a19.21 19.21 0 0 1 10.65-3.22h10.86a6.39 6.39 0 0 1 6.4 6.4v70.4h12.8A6.39 6.39 0 0 1 288 288zm198.4-198.4H25.6A25.6 25.6 0 0 0 0 128v256a25.6 25.6 0 0 0 25.6 25.6h460.8A25.6 25.6 0 0 0 512 384V128a25.6 25.6 0 0 0-25.6-25.6zM473.6 320a51.2 51.2 0 0 0-51.2 51.2H89.6A51.2 51.2 0 0 0 38.4 320V192a51.2 51.2 0 0 0 51.2-51.2h332.8a51.2 51.2 0 0 0 51.2 51.2z"/></symbol><symbol id="txex-icon-joint-request" viewBox="0 0 512 512" xmlns="http://www.w3.org/2000/svg"><defs><style>.kcls-1{fill:#cb6015}</style></defs><path class="kcls-1" d="M396.62 227.88a56.25 56.25 0 1 0-56.25-56.26 56.31 56.31 0 0 0 56.25 56.26zM424.74 256h-56.25a56.09 56.09 0 0 0-39.64 16.35 128.56 128.56 0 0 1 66 96.15h58A28.09 28.09 0 0 0 481 340.38v-28.13A56.3 56.3 0 0 0 424.74 256zm-225 0a98.44 98.44 0 1 0-98.44-98.44A98.39 98.39 0 0 0 199.74 256zm67.5 28.12H260a135.86 135.86 0 0 1-120.42 0h-7.29A101.28 101.28 0 0 0 31 385.38v25.31a42.2 42.2 0 0 0 42.19 42.19H326.3a42.2 42.2 0 0 0 42.19-42.19v-25.31a101.28 101.28 0 0 0-101.25-101.26z"/></symbol><symbol id="txex-icon-joint-update" viewBox="0 0 512 512" xmlns="http://www.w3.org/2000/svg"><defs><style>.lcls-1{fill:#cb6015}</style></defs><circle class="lcls-1" cx="202.22" cy="154.43" r="101.57" transform="rotate(-9.22 202.183 154.42)"/><path class="lcls-1" d="M351.54 334.39v-10.88h-10.88A36.92 36.92 0 0 1 304 290.05a104.38 104.38 0 0 0-32.09-5h-7.52a140.23 140.23 0 0 1-124.24 0h-7.53A104.49 104.49 0 0 0 28.1 389.49v26.12a43.54 43.54 0 0 0 43.53 43.52H332.8a43.53 43.53 0 0 0 43.53-43.52v-26.12a104.43 104.43 0 0 0-2.13-21.07 37 37 0 0 1-22.66-34.03zm126.89-99.68h-38.09v-38.08a9.71 9.71 0 0 0-9.67-9.68h-32.25a9.71 9.71 0 0 0-9.67 9.68v38.08h-38.09a9.71 9.71 0 0 0-9.67 9.68v32.24a9.7 9.7 0 0 0 9.67 9.67h38.09v38.09a9.71 9.71 0 0 0 9.67 9.68h32.25a9.71 9.71 0 0 0 9.67-9.68V286.3h38.09a9.7 9.7 0 0 0 9.67-9.67v-32.24a9.71 9.71 0 0 0-9.67-9.68z"/></symbol><symbol id="txex-icon-membership-card" viewBox="0 0 512 512" xmlns="http://www.w3.org/2000/svg"><defs><style>.mcls-1{fill:#cb6015}</style></defs><path class="mcls-1" d="M469.33 56.89H42.67A42.68 42.68 0 0 0 0 99.56v312.88a42.68 42.68 0 0 0 42.67 42.67h426.66A42.68 42.68 0 0 0 512 412.44V99.56a42.68 42.68 0 0 0-42.67-42.67zm0 355.55H269.51c.8-4 .71 3.2.71-19.91 0-28.26-26.75-51.2-59.73-51.2-9.6 0-16.62 7.11-39.82 7.11-23.91 0-29.69-7.11-39.83-7.11-33 0-59.73 22.94-59.73 51.2 0 23.11-.18 15.91.71 19.91H42.67v-256h426.66zM320 341.33h99.56a7.13 7.13 0 0 0 7.11-7.11V320a7.13 7.13 0 0 0-7.11-7.11H320a7.13 7.13 0 0 0-7.11 7.11v14.22a7.13 7.13 0 0 0 7.11 7.11zm0-56.89h99.56a7.13 7.13 0 0 0 7.11-7.11v-14.22a7.13 7.13 0 0 0-7.11-7.11H320a7.13 7.13 0 0 0-7.11 7.11v14.22a7.13 7.13 0 0 0 7.11 7.11zm0-56.88h99.56a7.13 7.13 0 0 0 7.11-7.12v-14.22a7.13 7.13 0 0 0-7.11-7.11H320a7.13 7.13 0 0 0-7.11 7.11v14.22a7.13 7.13 0 0 0 7.11 7.12zm-149.33 85.33A56.89 56.89 0 1 0 113.78 256a56.95 56.95 0 0 0 56.89 56.89z"/></symbol><symbol id="txex-icon-password" viewBox="0 0 512 512" xmlns="http://www.w3.org/2000/svg"><defs><style>.ncls-1{fill:#cb6015}</style></defs><path class="ncls-1" d="M397.43 230.29h-19.29v-57.86a122.14 122.14 0 0 0-244.28 0v57.86h-19.29A38.58 38.58 0 0 0 76 268.86v154.28a38.58 38.58 0 0 0 38.57 38.57h282.86A38.58 38.58 0 0 0 436 423.14V268.86a38.58 38.58 0 0 0-38.57-38.57zm-83.57 0H198.14v-57.86a57.86 57.86 0 0 1 115.72 0z"/></symbol><symbol id="txex-icon-pay-invoice" viewBox="0 0 512 512" xmlns="http://www.w3.org/2000/svg"><defs><style>.ocls-1{fill:#cb6015}</style></defs><path class="ocls-1" d="M448 131.9V464a48 48 0 0 1-48 48H112a48 48 0 0 1-48-48V48a48 48 0 0 1 48-48h204.1A48 48 0 0 1 350 14.1L433.9 98a47.83 47.83 0 0 1 14.1 33.9zm-128-80V128h76.1zM400 464V176H296a23.94 23.94 0 0 1-24-24V48H112v416z"/><path class="ocls-1" d="M276 364.35v24.12a8 8 0 0 1-8 8h-16a8 8 0 0 1-8-8v-24.29a57.26 57.26 0 0 1-31.37-11.35 8 8 0 0 1-.57-12.14l11.75-11.21a8.21 8.21 0 0 1 10.13-.73 24.08 24.08 0 0 0 12.82 3.72h28.11c6.5 0 11.8-5.92 11.8-13.19 0-5.95-3.61-11.19-8.77-12.73l-45-13.5c-18.59-5.58-31.58-23.42-31.58-43.39 0-24.52 19.05-44.44 42.67-45.07v-24.12a8 8 0 0 1 8-8h16a8 8 0 0 1 8 8v24.29a57.18 57.18 0 0 1 31.37 11.35 8 8 0 0 1 .57 12.14l-11.75 11.21a8.21 8.21 0 0 1-10.13.73 24 24 0 0 0-12.82-3.72h-28.11c-6.5 0-11.8 5.92-11.8 13.19 0 6 3.61 11.19 8.77 12.73l45 13.5c18.59 5.58 31.58 23.42 31.58 43.39 0 24.53-19.05 44.44-42.67 45.07z"/></symbol><symbol id="txex-icon-pay-payoff" viewBox="0 0 512 512" xmlns="http://www.w3.org/2000/svg"><defs><style>.pcls-1{fill:#cb6015}</style></defs><path class="pcls-1" d="M448 131.9V464a48 48 0 0 1-48 48H112a48 48 0 0 1-48-48V48a48 48 0 0 1 48-48h204.1A48 48 0 0 1 350 14.1L433.9 98a47.83 47.83 0 0 1 14.1 33.9zm-128-80V128h76.1zM400 464V176H296a23.94 23.94 0 0 1-24-24V48H112v416z"/><path class="pcls-1" d="M344.06 247.21L238 352.47a8.94 8.94 0 0 1-12.65-.05l-56-56.44a9 9 0 0 1 .05-12.66l16.94-16.8a8.94 8.94 0 0 1 12.65.05l32.89 33.15 82.82-82.15a8.94 8.94 0 0 1 12.65.05l16.81 16.94a8.94 8.94 0 0 1-.06 12.65z"/></symbol><symbol id="txex-icon-pay-updatecard" viewBox="0 0 512 512" xmlns="http://www.w3.org/2000/svg"><defs><style>.qcls-1{fill:#cb6015}</style></defs><path class="qcls-1" d="M469.24 56.89H42.76A42.7 42.7 0 0 0 0 99.56v312.88a42.7 42.7 0 0 0 42.76 42.67h426.48A42.7 42.7 0 0 0 512 412.44V99.56a42.7 42.7 0 0 0-42.76-42.67zM48.09 99.56h415.82a5.35 5.35 0 0 1 5.33 5.33v37.33H42.76v-37.33a5.35 5.35 0 0 1 5.33-5.33zm415.82 312.88H48.09a5.35 5.35 0 0 1-5.33-5.33V256h426.48v151.11a5.35 5.35 0 0 1-5.33 5.33zm-293.24-88.88v35.55A10.7 10.7 0 0 1 160 369.78H96a10.7 10.7 0 0 1-10.67-10.67v-35.55A10.7 10.7 0 0 1 96 312.89h64a10.7 10.7 0 0 1 10.67 10.67zm170.66 0v35.55a10.7 10.7 0 0 1-10.66 10.67H209.78a10.7 10.7 0 0 1-10.67-10.67v-35.55a10.7 10.7 0 0 1 10.67-10.67h120.89a10.7 10.7 0 0 1 10.66 10.67z"/></symbol><symbol id="txex-icon-profile" viewBox="0 0 512 512" xmlns="http://www.w3.org/2000/svg"><defs><style>.rcls-1{fill:#cb6015}</style></defs><circle class="rcls-1" cx="256" cy="197.05" r="90.05"/><path class="rcls-1" d="M256 8C119 8 8 119.08 8 256s111 248 248 248 248-111 248-248S393 8 256 8zm149.65 380.74c-19.32-36-56.83-60.72-100.53-60.72a24.91 24.91 0 0 0-7.27 1.13 127.57 127.57 0 0 1-83.7 0 24.91 24.91 0 0 0-7.27-1.13c-43.7 0-81.21 24.76-100.53 60.72a200 200 0 1 1 299.3 0z"/></symbol><symbol id="txex-icon-questions" viewBox="0 0 512 512" xmlns="http://www.w3.org/2000/svg"><defs><style>.scls-1{fill:#cb6015}</style></defs><path class="scls-1" d="M256 8C119 8 8 119.08 8 256s111 248 248 248 248-111 248-248S393 8 256 8zm0 448a200 200 0 1 1 200-200 199.88 199.88 0 0 1-200 200zm107.24-255.2c0 67.05-72.42 68.08-72.42 92.86V300a12 12 0 0 1-12 12h-45.64a12 12 0 0 1-12-12v-8.66c0-35.74 27.1-50 47.58-61.51 17.56-9.85 28.32-16.55 28.32-29.58 0-17.25-22-28.7-39.78-28.7-23.19 0-33.9 11-49 30a12 12 0 0 1-16.66 2.13l-27.83-21.1a12 12 0 0 1-2.64-16.37C184.85 131.49 214.94 112 261.79 112c49.07 0 101.45 38.3 101.45 88.8zM298 368a42 42 0 1 1-42-42 42 42 0 0 1 42 42z"/></symbol><symbol viewBox="0 0 72 72" id="txex-logo-circle" xmlns="http://www.w3.org/2000/svg"><circle cx="36" cy="36" r="34.75"/><g fill="currentColor"><path d="M36.002 4.288c-17.515 0-31.706 14.196-31.706 31.713 0 17.515 14.191 31.707 31.706 31.707 17.507 0 31.71-14.192 31.71-31.707.001-17.517-14.202-31.713-31.71-31.713zm15.536 25.683l-2.636 7.013a1.12 1.12 0 0 0 .002.687l2.632 6.8c.073.188.258.451.407.584l.14.115c.151.133.112.239-.089.239h-2.906a.565.565 0 0 1-.492-.347l-1.522-4.114c-.071-.189-.185-.19-.257-.003l-1.567 4.119a.575.575 0 0 1-.498.345H42.44c-.201 0-.309-.156-.238-.347l2.699-7.385c.07-.188.07-.501 0-.689l-2.559-7.016c-.066-.19.04-.346.243-.346h2.478c.203 0 .42.158.484.348l1.318 3.938c.062.19.164.19.229-.002l1.26-3.935a.537.537 0 0 1 .479-.349H51.3c.201.001.309.157.238.345zM23.716 14.705h24.813a.73.73 0 0 1 .738.792l-.302 4.394a.864.864 0 0 1-.85.795h-8.201a.794.794 0 0 0-.794.793v27.63c0 .438.135 1.125.3 1.529l.483 1.19c.166.405-.059.735-.494.735H32.26c-.438 0-.657-.33-.49-.731l.497-1.197c.168-.401.306-1.09.306-1.526V21.48a.794.794 0 0 0-.793-.793h-7.7a.857.857 0 0 1-.842-.795l-.269-4.394a.744.744 0 0 1 .747-.793zm-3.065 14.941h7.35c.079 0 .146.067.146.147v2.502a.149.149 0 0 1-.146.146h-3.832a.146.146 0 0 0-.146.146v3.212c0 .08.066.146.146.146h2.812c.081 0 .146.066.146.146v2.628a.148.148 0 0 1-.146.147l-2.812.018a.15.15 0 0 0-.146.148v3.315c0 .08.066.146.146.146h3.956c.083 0 .147.064.147.148v2.625c0 .08-.064.146-.147.146h-7.049a.146.146 0 0 1-.148-.146l.013-14.736a.64.64 0 0 0-.074-.273l-.289-.488c-.038-.066-.007-.123.073-.123zm28.953 28.726c-4.035 2.536-8.893 3.935-13.675 3.935h-.273c-4.787.004-9.645-1.397-13.692-3.935-4.146-2.601-7.572-6.437-9.648-10.802-2.154-4.445-2.951-9.516-2.247-14.281a24.946 24.946 0 0 1 2.069-6.959 26.037 26.037 0 0 1 1.768-3.165c.293-.428.205-1.126.119-1.801-.108-.867-.245-1.947.693-2.389 1.024-.489 2.694.07 3.87 1.265.833.849 1.285 1.862 1.271 2.854-.025.647-.34 1.138-.578 1.453-1.906 2.657-3.109 5.921-3.469 9.427A20.126 20.126 0 0 0 16 39.621a19.77 19.77 0 0 0 1.69 5.362 20.024 20.024 0 0 0 7.447 8.304 19.6 19.6 0 0 0 10.5 3.021h.23c3.801 0 7.432-1.043 10.567-3.019 3.18-1.963 5.824-4.911 7.451-8.306a19.616 19.616 0 0 0 1.688-5.357c.327-1.916.393-3.816.194-5.648-.387-3.535-1.594-6.798-3.496-9.44-.271-.382-.547-.85-.555-1.442-.023-.922.481-2.011 1.354-2.9 1.166-1.199 2.648-1.693 3.748-1.231.975.404.84 1.498.73 2.379-.085.685-.172 1.393.119 1.81a25.03 25.03 0 0 1 1.76 3.177 24.75 24.75 0 0 1 2.073 6.964c.698 4.752-.101 9.825-2.249 14.284a25.971 25.971 0 0 1-9.647 10.793z"/><path d="M36.002 0C16.151 0-.001 16.149-.001 36.001-.001 55.854 16.151 72 36.002 72c19.85 0 35.999-16.146 35.999-35.999C72.001 16.149 55.852 0 36.002 0zm0 69.43C17.566 69.43 2.57 54.432 2.57 36.001c0-18.433 14.996-33.43 33.432-33.43 18.432 0 33.426 14.997 33.426 33.43.002 18.431-14.992 33.429-33.426 33.429z"/></g></symbol></svg>